<svg width="16" height="16" viewBox="0 0 16 16" fill="none" xmlns="http://www.w3.org/2000/svg">
<path d="M14.4 6.28594C14.4 5.90723 14.0928 5.6 13.7141 5.6H6.28594C5.90723 5.6 5.6 5.90723 5.6 6.28594V13.7141C5.6 14.0928 5.90723 14.4 6.28594 14.4H13.7141C14.0928 14.4 14.4 14.0928 14.4 13.7141V6.28594ZM16 13.7141C16 14.9764 14.9764 16 13.7141 16H6.28594C5.02357 16 4 14.9764 4 13.7141V6.28594C4 5.02357 5.02357 4 6.28594 4H13.7141C14.9764 4 16 5.02357 16 6.28594V13.7141Z" fill="#828786"/>
<path d="M10.4 2.28594C10.4 1.91062 10.0894 1.6 9.71406 1.6H2.28594C1.91062 1.6 1.6 1.91062 1.6 2.28594V9.71406C1.6 10.066 1.87296 10.3607 2.21641 10.3961L2.28594 10.4L2.36719 10.4039C2.77076 10.4447 3.08594 10.7857 3.08594 11.2C3.08594 11.6143 2.77076 11.9553 2.36719 11.9961L2.28594 12L2.05234 11.9883C0.902285 11.8708 0 10.8943 0 9.71406V2.28594C0 1.02697 1.02697 0 2.28594 0H9.71406C10.973 0 12 1.02697 12 2.28594C11.9999 2.72766 11.6418 3.08594 11.2 3.08594C10.7582 3.08594 10.4001 2.72766 10.4 2.28594Z" fill="#828786"/>
</svg>
