<svg width="24" height="24" viewBox="0 0 24 24" fill="none" xmlns="http://www.w3.org/2000/svg">
<path d="M21.6 9.42891C21.6 8.86084 21.1392 8.4 20.5711 8.4H9.42891C8.86084 8.4 8.4 8.86084 8.4 9.42891V20.5711C8.4 21.1392 8.86084 21.6 9.42891 21.6H20.5711C21.1392 21.6 21.6 21.1392 21.6 20.5711V9.42891ZM24 20.5711C24 22.4646 22.4646 24 20.5711 24H9.42891C7.53536 24 6 22.4646 6 20.5711V9.42891C6 7.53536 7.53536 6 9.42891 6H20.5711C22.4646 6 24 7.53536 24 9.42891V20.5711Z" fill="#828786"/>
<path d="M15.6 3.42891C15.6 2.86593 15.1341 2.4 14.5711 2.4H3.42891C2.86593 2.4 2.4 2.86593 2.4 3.42891V14.5711C2.4 15.099 2.80944 15.5411 3.32461 15.5941L3.42891 15.6L3.55078 15.6059C4.15613 15.6671 4.62891 16.1785 4.62891 16.8C4.62891 17.4215 4.15613 17.9329 3.55078 17.9941L3.42891 18L3.07852 17.9824C1.35343 17.8062 0 16.3414 0 14.5711V3.42891C0 1.54045 1.54045 0 3.42891 0H14.5711C16.4596 0 18 1.54045 18 3.42891C17.9998 4.09149 17.4626 4.62891 16.8 4.62891C16.1374 4.62891 15.6002 4.09149 15.6 3.42891Z" fill="#828786"/>
</svg>
