<svg width="16" height="16" viewBox="0 0 16 16" fill="none" xmlns="http://www.w3.org/2000/svg">
<path d="M7.52857 2.19527C7.78892 1.93491 8.21094 1.93491 8.47129 2.19527C8.73165 2.45562 8.73165 2.87764 8.47129 3.13799L3.60923 8.00005L8.47129 12.8621L8.51687 12.9129C8.73044 13.1748 8.71538 13.5608 8.47129 13.8048C8.22721 14.0489 7.84121 14.064 7.57935 13.8504L7.52857 13.8048L2.19514 8.47142C1.93479 8.21106 1.93479 7.78905 2.19514 7.52869L7.52857 2.19527Z" fill="#828786"/>
<path d="M13.3334 7.33337L13.4017 7.33663C13.7378 7.37085 14 7.65493 14 8.00005C14 8.34518 13.7378 8.62925 13.4017 8.66348L13.3334 8.66673H3.33318C2.96499 8.66673 2.66651 8.36825 2.66651 8.00005C2.66651 7.63186 2.96499 7.33337 3.33318 7.33337H13.3334Z" fill="#828786"/>
</svg>
