<svg width="24" height="24" viewBox="0 0 24 24" fill="none" xmlns="http://www.w3.org/2000/svg">
<path d="M19.2 12.9091C19.2 12.407 18.7971 12 18.3 12H5.7C5.20294 12 4.8 12.407 4.8 12.9091V19.2727C4.8 19.7748 5.20294 20.1818 5.7 20.1818H18.3C18.7971 20.1818 19.2 19.7748 19.2 19.2727V12.9091ZM15.6 7.45455C15.6 6.49012 15.2204 5.56547 14.5453 4.88352C13.8702 4.20157 12.9548 3.81818 12 3.81818C11.0452 3.81818 10.1298 4.20157 9.45469 4.88352C8.77956 5.56547 8.4 6.49012 8.4 7.45455V10.1818H15.6V7.45455ZM17.4 10.1818H18.3C19.7912 10.1818 21 11.4029 21 12.9091V19.2727C21 20.779 19.7912 22 18.3 22H5.7C4.20883 22 3 20.779 3 19.2727V12.9091C3 11.4029 4.20883 10.1818 5.7 10.1818H6.6V7.45455C6.6 6.00791 7.16933 4.62094 8.18203 3.59801C9.19473 2.57509 10.5678 2 12 2C13.4322 2 14.8053 2.57509 15.818 3.59801C16.8307 4.62094 17.4 6.00791 17.4 7.45455V10.1818Z" fill="#828786"/>
</svg>
