<svg width="16" height="16" viewBox="0 0 16 16" fill="none" xmlns="http://www.w3.org/2000/svg">
<path d="M12.5834 6.25004V3.41671H9.75004C9.38185 3.41671 9.08337 3.11823 9.08337 2.75004C9.08337 2.38185 9.38185 2.08337 9.75004 2.08337H13.25C13.6182 2.08337 13.9167 2.38185 13.9167 2.75004V6.25004C13.9167 6.61823 13.6182 6.91671 13.25 6.91671C12.8819 6.91671 12.5834 6.61823 12.5834 6.25004Z" fill="#7142FF"/>
<path d="M12.7787 2.27864C13.039 2.01829 13.461 2.01829 13.7214 2.27864C13.9817 2.53899 13.9817 2.961 13.7214 3.22134L7.30472 9.63801C7.04437 9.89836 6.62236 9.89836 6.36201 9.63801C6.10166 9.37766 6.10166 8.95565 6.36201 8.6953L12.7787 2.27864Z" fill="#7142FF"/>
<path d="M2.08337 12.0834V5.66671C2.08337 5.18048 2.27667 4.7143 2.62048 4.37048C2.9643 4.02667 3.43048 3.83337 3.91671 3.83337H7.41671C7.7849 3.83337 8.08337 4.13185 8.08337 4.50004C8.08337 4.86823 7.7849 5.16671 7.41671 5.16671H3.91671C3.7841 5.16671 3.65696 5.21942 3.56319 5.31319C3.46942 5.40696 3.41671 5.5341 3.41671 5.66671V12.0834C3.41671 12.216 3.46942 12.3431 3.56319 12.4369C3.65696 12.5307 3.7841 12.5834 3.91671 12.5834H10.3334C10.466 12.5834 10.5931 12.5307 10.6869 12.4369C10.7807 12.3431 10.8334 12.216 10.8334 12.0834V8.58337C10.8334 8.21518 11.1319 7.91671 11.5 7.91671C11.8682 7.91671 12.1667 8.21518 12.1667 8.58337V12.0834C12.1667 12.5696 11.9734 13.0358 11.6296 13.3796C11.2858 13.7234 10.8196 13.9167 10.3334 13.9167H3.91671C3.43048 13.9167 2.9643 13.7234 2.62048 13.3796C2.27667 13.0358 2.08337 12.5696 2.08337 12.0834Z" fill="#7142FF"/>
</svg>
