<svg width="16" height="16" viewBox="0 0 16 16" fill="none" xmlns="http://www.w3.org/2000/svg">
<path d="M12.8 6.04941L8.86074 8.36914L8.85723 8.3709C8.62966 8.50296 8.37394 8.57945 8.1125 8.59649L8 8.6C7.69982 8.6 7.4029 8.52186 7.14277 8.3709L7.13926 8.36914L3.2 6.04941V11.15C3.2 11.3827 3.3988 11.5999 3.67988 11.6H12.3201C12.6012 11.5999 12.8 11.3827 12.8 11.15V6.04941ZM3.67988 4.4C3.4705 4.40005 3.30682 4.52064 3.23691 4.67832L7.74512 7.3332L7.80254 7.36133C7.86274 7.38619 7.93004 7.4 8 7.4L8.06914 7.39531C8.13661 7.38642 8.20006 7.365 8.25488 7.3332L12.7625 4.67832C12.6925 4.52074 12.5294 4.40005 12.3201 4.4H3.67988ZM14 11.15C14 12.0771 13.2319 12.7999 12.3201 12.8H3.67988C2.76814 12.7999 2 12.0771 2 11.15V4.85C2 3.92295 2.76814 3.20006 3.67988 3.2H12.3201C13.2319 3.20006 14 3.92295 14 4.85V11.15Z" fill="#828786"/>
</svg>
