<svg width="16" height="16" viewBox="0 0 16 16" fill="none" xmlns="http://www.w3.org/2000/svg">
<path d="M9.63636 12.9091V11.8182C9.63636 11.3842 9.46384 10.9681 9.15696 10.6612C8.88849 10.3927 8.53646 10.227 8.16193 10.1898L8 10.1818H4.72727C4.29328 10.1818 3.87719 10.3543 3.57031 10.6612C3.26343 10.9681 3.09091 11.3842 3.09091 11.8182V12.9091C3.09091 13.2103 2.8467 13.4545 2.54545 13.4545C2.24421 13.4545 2 13.2103 2 12.9091V11.8182C2 11.0948 2.28754 10.4013 2.79901 9.88989C3.31047 9.37842 4.00395 9.09088 4.72727 9.09088H8C8.72332 9.09088 9.4168 9.37842 9.92827 9.88989C10.4397 10.4013 10.7273 11.0948 10.7273 11.8182V12.9091C10.7273 13.2103 10.4831 13.4545 10.1818 13.4545C9.88057 13.4545 9.63636 13.2103 9.63636 12.9091Z" fill="#828786"/>
<path d="M8 5.2727C8 4.36896 7.26738 3.63633 6.36364 3.63633C5.4599 3.63633 4.72727 4.36896 4.72727 5.2727C4.72727 6.17644 5.4599 6.90906 6.36364 6.90906C7.26738 6.90906 8 6.17644 8 5.2727ZM9.09091 5.2727C9.09091 6.77893 7.86987 7.99997 6.36364 7.99997C4.85741 7.99997 3.63636 6.77893 3.63636 5.2727C3.63636 3.76647 4.85741 2.54543 6.36364 2.54543C7.86987 2.54543 9.09091 3.76647 9.09091 5.2727Z" fill="#828786"/>
<path d="M12.9091 12.9091V11.8188L12.9032 11.6835C12.877 11.3692 12.7604 11.0681 12.5661 10.8173C12.3716 10.5665 12.1091 10.3783 11.8113 10.2745L11.6818 10.2351L11.6286 10.2186C11.3692 10.1228 11.2197 9.84433 11.2903 9.57088C11.3609 9.29753 11.6265 9.12605 11.8997 9.16765L11.9545 9.17937L12.0632 9.20973C12.6037 9.37341 13.0813 9.70104 13.4284 10.1488C13.7986 10.6264 13.9995 11.2135 14 11.8177V12.9091C14 13.2103 13.7558 13.4546 13.4545 13.4546C13.1533 13.4546 12.9091 13.2103 12.9091 12.9091Z" fill="#828786"/>
<path d="M11.277 5.27543C11.277 4.91208 11.1562 4.5589 10.9334 4.27187C10.7385 4.02072 10.4751 3.83255 10.1765 3.72908L10.0465 3.6902L9.99325 3.67369C9.73369 3.57843 9.58335 3.30011 9.65341 3.02649C9.72345 2.75295 9.98892 2.58111 10.2623 2.62219L10.3171 2.63338L10.4263 2.66374C10.9682 2.82674 11.4472 3.1549 11.7953 3.60337C12.1665 4.0817 12.3679 4.66996 12.3679 5.27543L12.3658 5.38888C12.3422 5.95409 12.1432 6.49909 11.7953 6.94748C11.424 7.42585 10.9038 7.76727 10.3171 7.91747C10.0253 7.99219 9.72813 7.81619 9.65341 7.52436C9.57869 7.23253 9.75469 6.93538 10.0465 6.86065C10.3985 6.77053 10.7106 6.56597 10.9334 6.27898C11.1283 6.02788 11.2449 5.72609 11.2711 5.41126L11.277 5.27543Z" fill="#828786"/>
</svg>
