<svg width="16" height="16" viewBox="0 0 16 16" fill="none" xmlns="http://www.w3.org/2000/svg">
<path d="M13.3999 12.8C13.7313 12.8 13.9999 13.0686 13.9999 13.4C13.9999 13.7314 13.7313 14 13.3999 14H7.99991C7.66854 14 7.39991 13.7314 7.39991 13.4C7.39991 13.0686 7.66854 12.8 7.99991 12.8H13.3999Z" fill="#828786"/>
<path d="M12.7999 3.94883C12.7999 3.75027 12.7212 3.55954 12.5808 3.41914C12.4404 3.27874 12.2496 3.2 12.0511 3.2C11.8526 3.20004 11.6623 3.27886 11.522 3.41914L3.89073 11.0504C3.811 11.1301 3.7524 11.2287 3.7208 11.3369L3.33291 12.6664L4.66358 12.2785C4.7718 12.247 4.87038 12.1889 4.9501 12.1092L12.5808 4.47793C12.721 4.33758 12.7999 4.14727 12.7999 3.94883ZM13.9999 3.94883C13.9999 4.46553 13.7945 4.96097 13.4292 5.32637L5.79854 12.9576C5.57603 13.1801 5.30085 13.3425 4.99873 13.4305L4.99932 13.4311L3.17471 13.9631C3.01678 14.0091 2.84891 14.0121 2.68955 13.9713C2.5303 13.9304 2.38512 13.8473 2.26885 13.7311C2.15259 13.6148 2.06947 13.4696 2.02862 13.3104C1.98779 13.151 1.99076 12.9831 2.03682 12.8252L2.56885 11.0006L2.60577 10.8887C2.69898 10.6309 2.84779 10.3964 3.04229 10.202L10.6735 2.5707C11.0389 2.20538 11.5344 2.00004 12.0511 2C12.5679 2 13.0638 2.20526 13.4292 2.5707C13.7946 2.93615 13.9999 3.43201 13.9999 3.94883Z" fill="#828786"/>
</svg>
