<svg width="16" height="16" viewBox="0 0 16 16" fill="none" xmlns="http://www.w3.org/2000/svg">
<path d="M9.95116 8.61517C10.2538 8.54517 10.5561 8.71767 10.6543 9.0054L10.6713 9.06458L11.58 12.9956L11.5818 13.002C11.6271 13.2079 11.5855 13.4131 11.4834 13.5804C11.3843 13.7424 11.2401 13.8519 11.0949 13.9167C10.9489 13.9818 10.7905 14.0075 10.6385 13.9981C10.4938 13.9891 10.3451 13.9466 10.2101 13.8663V13.8675L8.06211 12.6288C8.05626 12.6256 8.03478 12.6171 8.00176 12.6171C7.96829 12.6171 7.94692 12.6263 7.94141 12.6294L7.94083 12.6288L5.78929 13.8675L5.7887 13.8663C5.65403 13.9461 5.5058 13.9886 5.36156 13.9975C5.20973 14.007 5.05158 13.9816 4.9057 13.9167C4.76054 13.8521 4.61646 13.7427 4.51723 13.5809C4.41493 13.4142 4.37301 13.2095 4.41762 13.0038L4.41938 12.9956L5.32816 9.06458L5.34515 9.00598C5.44312 8.71809 5.74503 8.54535 6.04768 8.61517C6.37054 8.6898 6.57172 9.01242 6.49709 9.33528L5.76643 12.4952L7.34318 11.5888L7.34376 11.5882C7.54582 11.4722 7.77642 11.4171 8.00176 11.4171C8.19889 11.4171 8.3999 11.4595 8.58242 11.5478L8.65976 11.5882L8.66094 11.5888L10.2324 12.4952L9.50175 9.33528L9.4912 9.27493C9.45281 8.97317 9.64845 8.68523 9.95116 8.61517Z" fill="#828786"/>
<path d="M11 6.19996C11 4.54312 9.65684 3.19999 8.00001 3.19999C6.34317 3.19999 5.00004 4.54312 5.00004 6.19996C5.00004 7.85679 6.34317 9.19993 8.00001 9.19993C9.65684 9.19993 11 7.85679 11 6.19996ZM12.2 6.19996C12.2 8.51953 10.3196 10.3999 8.00001 10.3999C5.68043 10.3999 3.80005 8.51953 3.80005 6.19996C3.80005 3.88038 5.68043 2 8.00001 2C10.3196 2 12.2 3.88038 12.2 6.19996Z" fill="#828786"/>
</svg>
