<svg width="16" height="16" viewBox="0 0 16 16" fill="none" xmlns="http://www.w3.org/2000/svg">
<path d="M12.7999 5.60008C13.1312 5.60008 13.3999 5.8687 13.3999 6.20006C13.3999 6.53142 13.1312 6.80004 12.7999 6.80004H3.2002C2.86884 6.80004 2.60022 6.53142 2.60022 6.20006C2.60022 5.8687 2.86884 5.60008 3.2002 5.60008H12.7999Z" fill="#828786"/>
<path d="M12.7999 9.19996C13.1312 9.19996 13.3999 9.46858 13.3999 9.79994C13.3999 10.1313 13.1312 10.3999 12.7999 10.3999H3.2002C2.86884 10.3999 2.60022 10.1313 2.60022 9.79994C2.60022 9.46858 2.86884 9.19996 3.2002 9.19996H12.7999Z" fill="#828786"/>
<path d="M6.86629 2.00371C7.1956 2.0403 7.4331 2.33708 7.39655 2.66639L6.19659 13.466C6.16 13.7953 5.86322 14.0328 5.53391 13.9963C5.2046 13.9597 4.9671 13.6629 5.00366 13.3336L6.20362 2.53397C6.24021 2.20466 6.53698 1.96716 6.86629 2.00371Z" fill="#828786"/>
<path d="M10.4662 2.00371C10.7955 2.0403 11.033 2.33708 10.9964 2.66639L9.79647 13.466C9.75988 13.7953 9.4631 14.0328 9.13379 13.9963C8.80448 13.9597 8.56698 13.6629 8.60354 13.3336L9.8035 2.53397C9.84009 2.20466 10.1369 1.96716 10.4662 2.00371Z" fill="#828786"/>
</svg>
