<svg width="24" height="24" viewBox="0 0 24 24" fill="none" xmlns="http://www.w3.org/2000/svg">
<path d="M9.30809 12.0005C9.30809 10.1739 7.82712 8.69218 6.00054 8.69191C4.17373 8.69191 2.69191 10.1737 2.69191 12.0005C2.69217 13.8271 4.17389 15.3081 6.00054 15.3081V17L5.74272 16.9936C3.18606 16.864 1.13601 14.814 1.00645 12.2573L1 12.0005C1 9.23909 3.23909 7 6.00054 7L6.25728 7.00645C8.89919 7.14032 11 9.32536 11 12.0005L10.9936 12.2573C10.8597 14.899 8.67549 16.9998 6.00054 17V15.3081C7.82695 15.3078 9.30782 13.827 9.30809 12.0005Z" fill="#828786"/>
<path d="M15.308 12.0005C15.308 10.1739 13.827 8.69218 12.0004 8.69191C10.1736 8.69191 8.69179 10.1737 8.69179 12.0005C8.69205 13.8271 10.1738 15.3081 12.0004 15.3081V17L11.7426 16.9936C9.18593 16.864 7.13588 14.814 7.00632 12.2573L6.99988 12.0005C6.99988 9.23909 9.23896 7 12.0004 7L12.2572 7.00645C14.8991 7.14032 16.9999 9.32536 16.9999 12.0005L16.9934 12.2573C16.8596 14.899 14.6754 16.9998 12.0004 17V15.3081C13.8268 15.3078 15.3077 13.827 15.308 12.0005Z" fill="#828786"/>
<path d="M21.3081 12.0005C21.3081 10.1739 19.8271 8.69218 18.0005 8.69191C16.1737 8.69191 14.6919 10.1737 14.6919 12.0005C14.6922 13.8271 16.1739 15.3081 18.0005 15.3081V17L17.7427 16.9936C15.1861 16.864 13.136 14.814 13.0064 12.2573L13 12.0005C13 9.23909 15.2391 7 18.0005 7L18.2573 7.00645C20.8992 7.14032 23 9.32536 23 12.0005L22.9936 12.2573C22.8597 14.899 20.6755 16.9998 18.0005 17V15.3081C19.827 15.3078 21.3078 13.827 21.3081 12.0005Z" fill="#828786"/>
</svg>
