<svg width="24" height="24" viewBox="0 0 24 24" fill="none" xmlns="http://www.w3.org/2000/svg">
<path d="M11.293 3.29295C11.6835 2.90243 12.3166 2.90243 12.7071 3.29295C13.0976 3.68348 13.0976 4.31649 12.7071 4.70702L5.41411 12L12.7071 19.293L12.7754 19.3691C13.0958 19.7619 13.0732 20.3409 12.7071 20.707C12.341 21.0731 11.762 21.0957 11.3692 20.7754L11.293 20.707L3.29302 12.707C2.90249 12.3165 2.90249 11.6835 3.29302 11.293L11.293 3.29295Z" fill="#828786"/>
<path d="M20 11L20.1026 11.0049C20.6067 11.0562 21 11.4823 21 12C21 12.5177 20.6067 12.9438 20.1026 12.9951L20 13H5.00005C4.44776 13 4.00005 12.5523 4.00005 12C4.00005 11.4477 4.44776 11 5.00005 11H20Z" fill="#828786"/>
</svg>
