<svg width="16" height="16" viewBox="0 0 16 16" fill="none" xmlns="http://www.w3.org/2000/svg">
<path d="M12.8 8C12.8 5.34903 10.651 3.2 8 3.2C5.34903 3.2 3.2 5.34903 3.2 8C3.2 10.651 5.34903 12.8 8 12.8V14C4.68629 14 2 11.3137 2 8C2 4.68629 4.68629 2 8 2C11.3137 2 14 4.68629 14 8C14 11.3137 11.3137 14 8 14V12.8C10.651 12.8 12.8 10.651 12.8 8Z" fill="#828786"/>
<path d="M6.73621 4.72837C7.22476 4.44128 7.79898 4.33614 8.3575 4.43189C8.91604 4.52769 9.42277 4.81812 9.78777 5.25161C10.1526 5.68505 10.3527 6.2337 10.352 6.80025L10.3444 6.96841C10.2679 7.79317 9.64072 8.34554 9.18484 8.64947C8.92356 8.82364 8.66639 8.95143 8.47703 9.0356C8.38147 9.07807 8.30063 9.11019 8.24265 9.13228C8.21368 9.14332 8.19004 9.15198 8.17292 9.15806C8.16444 9.16108 8.15766 9.16387 8.15242 9.16568C8.14986 9.16656 8.14772 9.16743 8.14597 9.16802C8.14518 9.16829 8.14424 9.1684 8.14363 9.16861L8.14246 9.16919L8.08269 9.1856C7.7859 9.25222 7.48075 9.08428 7.3825 8.78951C7.27803 8.47558 7.44744 8.13589 7.76101 8.03072H7.76218C7.76377 8.03017 7.76676 8.02928 7.77097 8.02779C7.78016 8.02452 7.79545 8.01902 7.8155 8.01138C7.85595 7.99597 7.91635 7.97183 7.98953 7.93931C8.13761 7.8735 8.33062 7.77675 8.51921 7.65103C8.93285 7.37527 9.1519 7.08165 9.15203 6.80025V6.79908C9.15244 6.51572 9.05266 6.24125 8.87019 6.02447C8.68769 5.80766 8.43407 5.66222 8.15476 5.61431C7.87549 5.56644 7.58811 5.61899 7.34382 5.76255C7.09957 5.9061 6.91406 6.13164 6.82 6.39888L6.79656 6.45572C6.66721 6.73102 6.34787 6.86937 6.05476 6.76626C5.74222 6.65631 5.57809 6.31358 5.68796 6.00103L5.72546 5.90142C5.92303 5.41038 6.27818 4.99756 6.73621 4.72837Z" fill="#828786"/>
<path d="M8.00586 10.4C8.33723 10.4 8.60586 10.6686 8.60586 11C8.60586 11.3314 8.33723 11.6 8.00586 11.6H8C7.66863 11.6 7.4 11.3314 7.4 11C7.4 10.6686 7.66863 10.4 8 10.4H8.00586Z" fill="#828786"/>
</svg>
