<svg width="24" height="24" viewBox="0 0 24 24" fill="none" xmlns="http://www.w3.org/2000/svg">
<path d="M21 20C21.5522 20 22 20.4477 22 21C22 21.5523 21.5522 22 21 22H12C11.4477 22 11 21.5523 11 21C11 20.4477 11.4477 20 12 20H21Z" fill="#828786"/>
<path d="M20 5.24805C20 4.91712 19.8687 4.59924 19.6347 4.36523C19.4007 4.13123 19.0828 4 18.7519 4C18.4212 4.00007 18.104 4.13143 17.8701 4.36523L5.15133 17.084C5.01845 17.2168 4.92079 17.3812 4.86813 17.5615L4.22165 19.7773L6.43942 19.1309C6.61979 19.0783 6.78409 18.9815 6.91696 18.8486L19.6347 6.12988C19.8685 5.89597 19.9999 5.57878 20 5.24805ZM22 5.24805C21.9999 6.10921 21.6577 6.93496 21.0488 7.54395L8.33102 20.2627C7.96017 20.6335 7.50153 20.9042 6.99801 21.0508L6.99899 21.0518L3.95797 21.9385C3.69476 22.0152 3.41498 22.0202 3.14938 21.9521C2.88395 21.8841 2.64198 21.7455 2.44821 21.5518C2.25444 21.358 2.1159 21.116 2.04782 20.8506C1.97977 20.585 1.98472 20.3052 2.06149 20.042L2.94821 17.001L3.00973 16.8145C3.16508 16.3849 3.4131 15.994 3.73727 15.6699L16.456 2.95117C17.065 2.34229 17.8908 2.00007 18.7519 2C19.6133 2 20.4397 2.3421 21.0488 2.95117C21.6579 3.56025 22 4.38669 22 5.24805Z" fill="#828786"/>
</svg>
