<svg width="16" height="16" viewBox="0 0 16 16" fill="none" xmlns="http://www.w3.org/2000/svg">
<path d="M13.4 3.79999C13.7314 3.79999 14 4.06862 14 4.39999C14 4.73136 13.7314 4.99999 13.4 4.99999H2.6C2.26863 4.99999 2 4.73136 2 4.39999C2 4.06862 2.26863 3.79999 2.6 3.79999H13.4Z" fill="#828786"/>
<path d="M3.2 12.8V4.39999C3.2 4.06862 3.46863 3.79999 3.8 3.79999C4.13137 3.79999 4.4 4.06862 4.4 4.39999V12.8C4.4 12.9049 4.45843 13.06 4.59922 13.2008C4.74001 13.3416 4.89514 13.4 5 13.4H11C11.1049 13.4 11.26 13.3416 11.4008 13.2008C11.5416 13.06 11.6 12.9049 11.6 12.8V4.39999C11.6 4.06862 11.8686 3.79999 12.2 3.79999C12.5314 3.79999 12.8 4.06862 12.8 4.39999V12.8C12.8 13.2951 12.5584 13.74 12.2492 14.0492C11.94 14.3584 11.4951 14.6 11 14.6H5C4.50486 14.6 4.05999 14.3584 3.75078 14.0492C3.44157 13.74 3.2 13.2951 3.2 12.8Z" fill="#828786"/>
<path d="M9.8 4.39999V3.19999C9.8 3.09513 9.74157 2.94 9.60078 2.79921C9.45999 2.65842 9.30486 2.59999 9.2 2.59999H6.8C6.69514 2.59999 6.54001 2.65842 6.39922 2.79921C6.25843 2.94 6.2 3.09513 6.2 3.19999V4.39999C6.2 4.73136 5.93137 4.99999 5.6 4.99999C5.26863 4.99999 5 4.73136 5 4.39999V3.19999C5 2.70485 5.24157 2.25998 5.55078 1.95078C5.85999 1.64157 6.30486 1.39999 6.8 1.39999H9.2C9.69514 1.39999 10.14 1.64157 10.4492 1.95078C10.7584 2.25998 11 2.70485 11 3.19999V4.39999C11 4.73136 10.7314 4.99999 10.4 4.99999C10.0686 4.99999 9.8 4.73136 9.8 4.39999Z" fill="#828786"/>
<path d="M6.2 11V7.39999C6.2 7.06862 6.46863 6.79999 6.8 6.79999C7.13137 6.79999 7.4 7.06862 7.4 7.39999V11C7.4 11.3314 7.13137 11.6 6.8 11.6C6.46863 11.6 6.2 11.3314 6.2 11Z" fill="#828786"/>
<path d="M8.6 11V7.39999C8.6 7.06862 8.86863 6.79999 9.2 6.79999C9.53137 6.79999 9.8 7.06862 9.8 7.39999V11C9.8 11.3314 9.53137 11.6 9.2 11.6C8.86863 11.6 8.6 11.3314 8.6 11Z" fill="#828786"/>
</svg>
