<svg width="16" height="16" viewBox="0 0 16 16" fill="none" xmlns="http://www.w3.org/2000/svg">
<path d="M5 4.39999V1.99999C5 1.66862 5.26863 1.39999 5.6 1.39999C5.93137 1.39999 6.2 1.66862 6.2 1.99999V4.39999C6.2 4.73136 5.93137 4.99999 5.6 4.99999C5.26863 4.99999 5 4.73136 5 4.39999Z" fill="#828786"/>
<path d="M9.8 4.39999V1.99999C9.8 1.66862 10.0686 1.39999 10.4 1.39999C10.7314 1.39999 11 1.66862 11 1.99999V4.39999C11 4.73136 10.7314 4.99999 10.4 4.99999C10.0686 4.99999 9.8 4.73136 9.8 4.39999Z" fill="#828786"/>
<path d="M12.8 4.39999C12.8 4.06862 12.5314 3.79999 12.2 3.79999H3.8C3.46863 3.79999 3.2 4.06862 3.2 4.39999V12.8C3.2 13.1314 3.46863 13.4 3.8 13.4H12.2C12.5314 13.4 12.8 13.1314 12.8 12.8V4.39999ZM14 12.8C14 13.7941 13.1941 14.6 12.2 14.6H3.8C2.80589 14.6 2 13.7941 2 12.8V4.39999C2 3.40588 2.80589 2.59999 3.8 2.59999H12.2C13.1941 2.59999 14 3.40588 14 4.39999V12.8Z" fill="#828786"/>
<path d="M13.4 6.19999C13.7314 6.19999 14 6.46862 14 6.79999C14 7.13136 13.7314 7.39999 13.4 7.39999H2.6C2.26863 7.39999 2 7.13136 2 6.79999C2 6.46862 2.26863 6.19999 2.6 6.19999H13.4Z" fill="#828786"/>
</svg>
