<svg width="16" height="16" viewBox="0 0 16 16" fill="none" xmlns="http://www.w3.org/2000/svg">
<path fill-rule="evenodd" clip-rule="evenodd" d="M11.3 2C12.515 2 13.5 2.97683 13.5 4.18182C13.5 5.3868 12.515 6.36364 11.3 6.36364C10.6911 6.36364 10.1402 6.11817 9.74185 5.72177L6.88442 7.74538C6.89422 7.82894 6.9 7.91384 6.9 8C6.9 8.08598 6.89418 8.1707 6.88442 8.25408L9.74185 10.2777C10.1402 9.88146 10.6913 9.63636 11.3 9.63636C12.515 9.63636 13.5 10.6132 13.5 11.8182C13.5 13.0232 12.515 14 11.3 14C10.085 14 9.1 13.0232 9.1 11.8182C9.1 11.6117 9.1292 11.412 9.18325 11.2227L6.46709 9.29865C6.06621 9.83427 5.42428 10.1818 4.7 10.1818C3.48497 10.1818 2.5 9.20499 2.5 8C2.5 6.79502 3.48497 5.81818 4.7 5.81818C5.42412 5.81818 6.06619 6.16539 6.46709 6.70082L9.18325 4.77681C9.12929 4.58763 9.1 4.38813 9.1 4.18182C9.1 2.97683 10.085 2 11.3 2ZM11.3 10.7273C10.6925 10.7273 10.2 11.2157 10.2 11.8182C10.2 12.4207 10.6925 12.9091 11.3 12.9091C11.9075 12.9091 12.4 12.4207 12.4 11.8182C12.4 11.2157 11.9075 10.7273 11.3 10.7273ZM4.7 6.90909C4.09249 6.90909 3.6 7.39751 3.6 8C3.6 8.60249 4.09249 9.09091 4.7 9.09091C5.30751 9.09091 5.8 8.60249 5.8 8C5.8 7.39751 5.30751 6.90909 4.7 6.90909ZM11.3 3.09091C10.6925 3.09091 10.2 3.57933 10.2 4.18182C10.2 4.78431 10.6925 5.27273 11.3 5.27273C11.9075 5.27273 12.4 4.78431 12.4 4.18182C12.4 3.57933 11.9075 3.09091 11.3 3.09091Z" fill="#828786"/>
</svg>
