<svg width="24" height="24" viewBox="0 0 24 24" fill="none" xmlns="http://www.w3.org/2000/svg">
<path d="M14.7273 20.1818V18.3636C14.7273 17.6403 14.4397 16.9468 13.9283 16.4353C13.4808 15.9879 12.8941 15.7117 12.2699 15.6496L12 15.6363H6.54545C5.82214 15.6363 5.12865 15.9239 4.61719 16.4353C4.10572 16.9468 3.81818 17.6403 3.81818 18.3636V20.1818C3.81818 20.6838 3.41117 21.0909 2.90909 21.0909C2.40701 21.0909 2 20.6838 2 20.1818V18.3636C2 17.1581 2.47924 16.0022 3.33168 15.1498C4.18411 14.2974 5.33992 13.8181 6.54545 13.8181H12C13.2055 13.8181 14.3613 14.2974 15.2138 15.1498C16.0662 16.0022 16.5455 17.1581 16.5455 18.3636V20.1818C16.5455 20.6838 16.1384 21.0909 15.6364 21.0909C15.1343 21.0909 14.7273 20.6838 14.7273 20.1818Z" fill="#828786"/>
<path d="M12 7.4545C12 5.94827 10.779 4.72722 9.27273 4.72722C7.7665 4.72722 6.54545 5.94827 6.54545 7.4545C6.54545 8.96073 7.7665 10.1818 9.27273 10.1818C10.779 10.1818 12 8.96073 12 7.4545ZM13.8182 7.4545C13.8182 9.96488 11.7831 12 9.27273 12C6.76234 12 4.72727 9.96488 4.72727 7.4545C4.72727 4.94411 6.76234 2.90904 9.27273 2.90904C11.7831 2.90904 13.8182 4.94411 13.8182 7.4545Z" fill="#828786"/>
<path d="M20.1818 20.1819V18.3646L20.1721 18.1391C20.1283 17.6153 19.9341 17.1135 19.6101 16.6955C19.2861 16.2775 18.8485 15.9639 18.3521 15.7909L18.1364 15.7252L18.0476 15.6977C17.6154 15.538 17.3662 15.0739 17.4838 14.6181C17.6015 14.1626 18.0441 13.8767 18.4995 13.9461L18.5909 13.9656L18.772 14.0162C19.6728 14.289 20.4689 14.8351 21.0474 15.5814C21.6643 16.3773 21.9992 17.3558 22 18.3628V20.1819C21.9999 20.6839 21.593 21.091 21.0909 21.091C20.5889 21.091 20.1819 20.6839 20.1818 20.1819Z" fill="#828786"/>
<path d="M17.4616 7.45904C17.4616 6.85347 17.2603 6.26483 16.889 5.78646C16.5641 5.36787 16.1251 5.05425 15.6275 4.88181L15.4109 4.817L15.3221 4.78948C14.8895 4.63071 14.6389 4.16684 14.7557 3.71082C14.8724 3.25491 15.3149 2.96852 15.7704 3.03699L15.8619 3.05563L16.0439 3.10624C16.947 3.3779 17.7453 3.92483 18.3255 4.67229C18.9441 5.46949 19.2798 6.44994 19.2798 7.45904L19.2763 7.64814C19.2371 8.59016 18.9054 9.49848 18.3255 10.2458C17.7066 11.0431 16.8396 11.6121 15.8619 11.8625C15.3755 11.987 14.8802 11.6937 14.7557 11.2073C14.6311 10.7209 14.9245 10.2256 15.4109 10.1011C15.9975 9.95089 16.5177 9.60996 16.889 9.13163C17.2139 8.71314 17.4082 8.21015 17.4519 7.68543L17.4616 7.45904Z" fill="#828786"/>
</svg>
