<svg width="16" height="16" viewBox="0 0 16 16" fill="none" xmlns="http://www.w3.org/2000/svg">
<path d="M12.32 8.54545C12.32 8.24421 12.0782 8 11.78 8H4.21998C3.92174 8 3.67998 8.24421 3.67998 8.54545V12.3636C3.67998 12.6649 3.92174 12.9091 4.21998 12.9091H11.78C12.0782 12.9091 12.32 12.6649 12.32 12.3636V8.54545ZM10.16 5.27273C10.16 4.69407 9.93224 4.13928 9.52716 3.73011C9.12208 3.32094 8.57284 3.09091 7.99998 3.09091C7.42711 3.09091 6.87787 3.32094 6.47279 3.73011C6.06771 4.13928 5.83998 4.69407 5.83998 5.27273V6.90909H10.16V5.27273ZM11.24 6.90909H11.78C12.6747 6.90909 13.4 7.64172 13.4 8.54545V12.3636C13.4 13.2674 12.6747 14 11.78 14H4.21998C3.32527 14 2.59998 13.2674 2.59998 12.3636V8.54545C2.59998 7.64172 3.32527 6.90909 4.21998 6.90909H4.75998V5.27273C4.75998 4.40475 5.10158 3.57256 5.70919 2.95881C6.31681 2.34505 7.14067 2 7.99998 2C8.85928 2 9.68314 2.34505 10.2908 2.95881C10.8984 3.57256 11.24 4.40475 11.24 5.27273V6.90909Z" fill="#828786"/>
</svg>
