<svg width="24" height="24" viewBox="0 0 24 24" fill="none" xmlns="http://www.w3.org/2000/svg">
<path d="M20 12C20 7.58172 16.4183 4 12 4C7.58172 4 4 7.58172 4 12C4 16.4183 7.58172 20 12 20V22C6.47715 22 2 17.5228 2 12C2 6.47715 6.47715 2 12 2C17.5228 2 22 6.47715 22 12C22 17.5228 17.5228 22 12 22V20C16.4183 20 20 16.4183 20 12Z" fill="#828786"/>
<path d="M9.89368 6.54729C10.7079 6.06881 11.665 5.89357 12.5958 6.05315C13.5267 6.21282 14.3713 6.69687 14.9796 7.41936C15.5877 8.14175 15.9212 9.05616 15.92 10.0004L15.9073 10.2807C15.7798 11.6553 14.7345 12.5759 13.9747 13.0824C13.5393 13.3727 13.1107 13.5857 12.795 13.726C12.6358 13.7968 12.501 13.8503 12.4044 13.8871C12.3561 13.9055 12.3167 13.92 12.2882 13.9301C12.2741 13.9351 12.2628 13.9398 12.254 13.9428C12.2498 13.9443 12.2462 13.9457 12.2433 13.9467C12.242 13.9471 12.2404 13.9473 12.2394 13.9477L12.2374 13.9487L12.1378 13.976C11.6432 14.087 11.1346 13.8071 10.9708 13.3158C10.7967 12.7926 11.0791 12.2265 11.6017 12.0512H11.6036C11.6063 12.0503 11.6113 12.0488 11.6183 12.0463C11.6336 12.0409 11.6591 12.0317 11.6925 12.019C11.7599 11.9933 11.8606 11.9531 11.9825 11.8988C12.2293 11.7892 12.551 11.6279 12.8654 11.4184C13.5548 10.9588 13.9198 10.4694 13.92 10.0004V9.99846C13.9207 9.5262 13.7544 9.06875 13.4503 8.70744C13.1461 8.34611 12.7235 8.1037 12.2579 8.02385C11.7925 7.94407 11.3135 8.03164 10.9064 8.27092C10.4993 8.51017 10.1901 8.88607 10.0333 9.33147L9.99426 9.42619C9.77869 9.88503 9.24644 10.1156 8.75793 9.94377C8.23703 9.76051 7.96348 9.1893 8.14661 8.66838L8.20911 8.50236C8.53839 7.68397 9.13029 6.99593 9.89368 6.54729Z" fill="#828786"/>
<path d="M12.0098 16C12.5621 16 13.0098 16.4477 13.0098 17C13.0098 17.5523 12.5621 18 12.0098 18H12C11.4477 18 11 17.5523 11 17C11 16.4477 11.4477 16 12 16H12.0098Z" fill="#828786"/>
</svg>
