<svg width="16" height="16" viewBox="0 0 16 16" fill="none" xmlns="http://www.w3.org/2000/svg">
<path d="M8.06449 2.00234C8.21286 2.01324 8.35513 2.06191 8.47875 2.14238C8.58452 2.21125 8.67308 2.30071 8.74008 2.40371L8.79985 2.51094V2.51153L10.0473 5.16114C10.0894 5.25031 10.1502 5.32444 10.2219 5.37911C10.2935 5.43366 10.3742 5.46775 10.4569 5.48048H10.4563L13.2442 5.90822H13.2448C13.4139 5.93392 13.5699 6.00838 13.6954 6.11915C13.7893 6.2021 13.8635 6.30307 13.9151 6.41388L13.959 6.52814L13.9872 6.6465C14.0074 6.76619 14.004 6.88931 13.976 7.00803C13.9388 7.1663 13.8591 7.31389 13.7428 7.43283L13.7422 7.43342L11.7254 9.493C11.6604 9.5595 11.6094 9.64414 11.5795 9.74026C11.5497 9.83642 11.5421 9.93972 11.5585 10.0403L12.0348 12.9506H12.0342C12.0608 13.1107 12.0448 13.2759 11.9862 13.4282C11.9272 13.5813 11.8267 13.7181 11.6926 13.8202C11.5583 13.9225 11.3961 13.9852 11.2245 13.9977C11.0538 14.0102 10.8848 13.9717 10.737 13.8899V13.8905L8.24321 12.5153C8.16665 12.4732 8.08316 12.452 8.00004 12.452C7.91704 12.452 7.83392 12.4733 7.75746 12.5153L5.26429 13.8905L5.2637 13.8899C5.11561 13.9716 4.94638 14.0098 4.77562 13.9971C4.60436 13.9843 4.44262 13.9217 4.30862 13.8196C4.17483 13.7175 4.07461 13.5805 4.01565 13.4276C3.95713 13.2756 3.94016 13.111 3.96643 12.9512L4.44222 10.0408C4.45867 9.94027 4.45151 9.83707 4.42171 9.74085C4.39188 9.64465 4.34093 9.5601 4.27581 9.49358L2.26076 7.43518C2.14338 7.31626 2.06243 7.16865 2.02463 7.00978C1.98685 6.85098 1.9927 6.68436 2.04104 6.52814C2.08942 6.37184 2.17945 6.22886 2.30529 6.11798L2.40549 6.04181C2.49312 5.98436 2.59104 5.94266 2.69494 5.91935L2.75823 5.90763L5.54378 5.48048H5.54437C5.62715 5.46785 5.70826 5.4337 5.77992 5.37911C5.85162 5.32445 5.91246 5.25036 5.95453 5.16114L7.20141 2.51153V2.51094C7.27125 2.36294 7.38103 2.23417 7.52191 2.14238C7.66322 2.05038 7.82936 2 8.00063 2L8.06449 2.00234ZM11.1336 13.0995L11.1424 13.0983L11.1418 13.0965L11.1307 13.0983L11.1336 13.0995ZM11.1424 13.0983L11.1336 13.0995L11.1307 13.0983L11.1418 13.0965L11.1424 13.0983ZM7.04027 5.67208C6.91793 5.93179 6.73559 6.15948 6.50707 6.33361C6.27844 6.50777 6.01047 6.62293 5.72601 6.66642L3.51819 7.00451L5.13304 8.65393H5.13362C5.33469 8.85934 5.48271 9.11076 5.56781 9.38518C5.65287 9.65954 5.6733 9.95073 5.62699 10.2342L5.25198 12.5264L7.17797 11.4647V11.4641C7.42986 11.3254 7.71221 11.252 8.00004 11.252C8.28784 11.252 8.57023 11.3254 8.82211 11.4641L8.8227 11.4647L10.7493 12.527L10.3743 10.2342V10.2336C10.3281 9.95022 10.3484 9.65884 10.4334 9.3846C10.5186 9.1104 10.6667 8.85923 10.8676 8.65393L12.4819 7.0051L10.2747 6.66642H10.2741C9.98985 6.62264 9.72197 6.50779 9.4936 6.33361C9.26538 6.15953 9.08381 5.93154 8.96157 5.67208L8.00063 3.63067L7.04027 5.67208ZM13.1118 6.77892L13.11 6.79064H13.1106L13.1129 6.77834L13.1118 6.77892Z" fill="#828786"/>
</svg>
