<svg width="24" height="24" viewBox="0 0 24 24" fill="none" xmlns="http://www.w3.org/2000/svg">
<path d="M20 7.99999C20.5523 7.99999 21 8.44771 21 8.99999C21 9.55228 20.5523 9.99999 20 9.99999H4C3.44772 9.99999 3 9.55228 3 8.99999C3 8.44771 3.44772 7.99999 4 7.99999H20Z" fill="#828786"/>
<path d="M20 14C20.5523 14 21 14.4477 21 15C21 15.5523 20.5523 16 20 16H4C3.44772 16 3 15.5523 3 15C3 14.4477 3.44772 14 4 14H20Z" fill="#828786"/>
<path d="M10.1104 2.00585C10.6592 2.06684 11.0551 2.56148 10.9941 3.11034L8.99414 21.1103C8.93315 21.6592 8.43851 22.0551 7.88965 21.9941C7.34078 21.9331 6.94493 21.4385 7.00586 20.8896L9.00586 2.88964C9.06684 2.34077 9.56149 1.94493 10.1104 2.00585Z" fill="#828786"/>
<path d="M16.1104 2.00585C16.6592 2.06684 17.0551 2.56148 16.9941 3.11034L14.9941 21.1103C14.9332 21.6592 14.4385 22.0551 13.8896 21.9941C13.3408 21.9331 12.9449 21.4385 13.0059 20.8896L15.0059 2.88964C15.0668 2.34077 15.5615 1.94493 16.1104 2.00585Z" fill="#828786"/>
</svg>
