<svg width="16" height="16" viewBox="0 0 16 16" fill="none" xmlns="http://www.w3.org/2000/svg">
<path d="M7.36359 14.3636V1.63636C7.36359 1.28491 7.6485 1 7.99996 1C8.35141 1 8.63632 1.28491 8.63632 1.63636V14.3636C8.63632 14.7151 8.35141 15 7.99996 15C7.6485 15 7.36359 14.7151 7.36359 14.3636Z" fill="#828786"/>
<path d="M11.1818 10.2273C11.1818 9.80534 11.014 9.4008 10.7157 9.10245C10.4546 8.84139 10.1123 8.68061 9.74809 8.64444L9.59086 8.63636H6.40905C5.64956 8.63636 4.9214 8.33444 4.38437 7.79741C3.84733 7.26037 3.54541 6.53221 3.54541 5.77273C3.54541 5.01324 3.84733 4.28508 4.38437 3.74805C4.9214 3.21101 5.64956 2.90909 6.40905 2.90909H11.1818C11.5332 2.90909 11.8181 3.194 11.8181 3.54545C11.8181 3.89691 11.5332 4.18182 11.1818 4.18182H6.40905C5.98711 4.18182 5.58258 4.34955 5.28422 4.6479C4.98587 4.94626 4.81814 5.35079 4.81814 5.77273C4.81814 6.19466 4.98587 6.5992 5.28422 6.89755C5.58258 7.1959 5.98711 7.36364 6.40905 7.36364H9.59086C10.3503 7.36364 11.0785 7.66556 11.6155 8.20259C12.1526 8.73963 12.4545 9.46779 12.4545 10.2273C12.4545 10.9868 12.1526 11.7149 11.6155 12.252C11.0785 12.789 10.3503 13.0909 9.59086 13.0909H4.18177C3.83032 13.0909 3.54541 12.806 3.54541 12.4545C3.54541 12.1031 3.83032 11.8182 4.18177 11.8182H9.59086L9.74809 11.8101C10.1123 11.7739 10.4546 11.6132 10.7157 11.3521C11.014 11.0537 11.1818 10.6492 11.1818 10.2273Z" fill="#828786"/>
</svg>
