<svg width="16" height="16" viewBox="0 0 16 16" fill="none" xmlns="http://www.w3.org/2000/svg">
<path d="M2 12.2V3.8C2 3.32261 2.18978 2.86491 2.52734 2.52734C2.86491 2.18978 3.32261 2 3.8 2H11.3C11.6314 2 11.9 2.26863 11.9 2.6C11.9 2.93137 11.6314 3.2 11.3 3.2H3.8C3.64087 3.2 3.4883 3.26326 3.37578 3.37578C3.26326 3.4883 3.2 3.64087 3.2 3.8V12.2C3.2 12.3591 3.26326 12.5117 3.37578 12.6242C3.4883 12.7367 3.64087 12.8 3.8 12.8H12.2C12.3591 12.8 12.5117 12.7367 12.6242 12.6242C12.7367 12.5117 12.8 12.3591 12.8 12.2V7.1C12.8 6.76863 13.0686 6.5 13.4 6.5C13.7314 6.5 14 6.76863 14 7.1V12.2C14 12.6774 13.8102 13.1351 13.4727 13.4727C13.1351 13.8102 12.6774 14 12.2 14H3.8C3.32261 14 2.86491 13.8102 2.52734 13.4727C2.18978 13.1351 2 12.6774 2 12.2Z" fill="#828786"/>
<path d="M12.9758 3.37578C13.2101 3.14147 13.5899 3.14147 13.8242 3.37578C14.0585 3.6101 14.0585 3.9899 13.8242 4.22422L7.82422 10.2242C7.5899 10.4585 7.2101 10.4585 6.97578 10.2242L5.17578 8.42422C4.94147 8.1899 4.94147 7.8101 5.17578 7.57578C5.39545 7.35611 5.74285 7.34256 5.97852 7.53477L6.02422 7.57578L7.4 8.95156L12.9758 3.37578Z" fill="#828786"/>
</svg>
