<svg width="24" height="24" viewBox="0 0 24 24" fill="none" xmlns="http://www.w3.org/2000/svg">
<path d="M2 19V5C2 4.20435 2.3163 3.44152 2.87891 2.87891C3.44152 2.3163 4.20435 2 5 2H17.5C18.0523 2 18.5 2.44772 18.5 3C18.5 3.55228 18.0523 4 17.5 4H5C4.73478 4 4.4805 4.10543 4.29297 4.29297C4.10543 4.4805 4 4.73478 4 5V19C4 19.2652 4.10543 19.5195 4.29297 19.707C4.48051 19.8946 4.73478 20 5 20H19C19.2652 20 19.5195 19.8946 19.707 19.707C19.8946 19.5195 20 19.2652 20 19V10.5C20 9.94772 20.4477 9.5 21 9.5C21.5523 9.5 22 9.94772 22 10.5V19C22 19.7957 21.6837 20.5585 21.1211 21.1211C20.5585 21.6837 19.7957 22 19 22H5C4.20435 22 3.44151 21.6837 2.87891 21.1211C2.3163 20.5585 2 19.7957 2 19Z" fill="#828786"/>
<path d="M20.293 4.29297C20.6835 3.90244 21.3165 3.90244 21.707 4.29297C22.0976 4.68349 22.0976 5.31651 21.707 5.70703L11.707 15.707C11.3165 16.0976 10.6835 16.0976 10.293 15.707L7.29297 12.707C6.90244 12.3165 6.90244 11.6835 7.29297 11.293C7.65908 10.9269 8.23809 10.9043 8.63086 11.2246L8.70703 11.293L11 13.5859L20.293 4.29297Z" fill="#828786"/>
</svg>
