<svg width="16" height="16" viewBox="0 0 16 16" fill="none" xmlns="http://www.w3.org/2000/svg">
<path d="M11.6 13.4V12.2C11.6 11.7226 11.4102 11.2649 11.0726 10.9273C10.735 10.5898 10.2773 10.4 9.79995 10.4H6.19995C5.72256 10.4 5.26486 10.5898 4.92729 10.9273C4.58973 11.2649 4.39995 11.7226 4.39995 12.2V13.4C4.39995 13.7314 4.13132 14 3.79995 14C3.46858 14 3.19995 13.7314 3.19995 13.4V12.2C3.19995 11.4044 3.51625 10.6415 4.07886 10.0789C4.64147 9.5163 5.4043 9.2 6.19995 9.2H9.79995C10.5956 9.2 11.3584 9.5163 11.921 10.0789C12.4837 10.6415 12.8 11.4044 12.8 12.2V13.4C12.8 13.7314 12.5313 14 12.2 14C11.8686 14 11.6 13.7314 11.6 13.4Z" fill="#828786"/>
<path d="M9.79995 5C9.79995 4.00589 8.99406 3.2 7.99995 3.2C7.00584 3.2 6.19995 4.00589 6.19995 5C6.19995 5.99411 7.00584 6.8 7.99995 6.8C8.99406 6.8 9.79995 5.99411 9.79995 5ZM11 5C11 6.65685 9.65681 8 7.99995 8C6.3431 8 4.99995 6.65685 4.99995 5C4.99995 3.34315 6.3431 2 7.99995 2C9.65681 2 11 3.34315 11 5Z" fill="#828786"/>
</svg>
