<svg width="16" height="16" viewBox="0 0 16 16" fill="none" xmlns="http://www.w3.org/2000/svg">
<path d="M12.8 8C12.8 5.34903 10.651 3.2 8 3.2C5.34903 3.2 3.2 5.34903 3.2 8C3.2 10.651 5.34903 12.8 8 12.8V14C4.68629 14 2 11.3137 2 8C2 4.68629 4.68629 2 8 2C11.3137 2 14 4.68629 14 8C14 11.3137 11.3137 14 8 14V12.8C10.651 12.8 12.8 10.651 12.8 8Z" fill="#828786"/>
<path d="M7.4 4.5C7.4 4.16863 7.66863 3.9 8 3.9C8.33137 3.9 8.6 4.16863 8.6 4.5V7.7291L10.6684 8.76328L10.7217 8.79375C10.9786 8.95654 11.0757 9.29049 10.9367 9.56836C10.7978 9.84623 10.4723 9.96917 10.1879 9.86133L10.1316 9.83672L7.73164 8.63672C7.52837 8.53508 7.4 8.32726 7.4 8.1V4.5Z" fill="#828786"/>
</svg>
