<svg width="16" height="16" viewBox="0 0 16 16" fill="none" xmlns="http://www.w3.org/2000/svg">
<path d="M12.8 3.8C12.8 3.46863 12.5314 3.2 12.2 3.2H3.8C3.46863 3.2 3.2 3.46863 3.2 3.8V12.2C3.2 12.5314 3.46863 12.8 3.8 12.8H12.2C12.5314 12.8 12.8 12.5314 12.8 12.2V3.8ZM14 12.2C14 13.1941 13.1941 14 12.2 14H3.8C2.80589 14 2 13.1941 2 12.2V3.8C2 2.80589 2.80589 2 3.8 2H12.2C13.1941 2 14 2.80589 14 3.8V12.2Z" fill="#828786"/>
<path d="M4.4 13.4V2.6C4.4 2.26863 4.66863 2 5 2C5.33137 2 5.6 2.26863 5.6 2.6V13.4C5.6 13.7314 5.33137 14 5 14C4.66863 14 4.4 13.7314 4.4 13.4Z" fill="#828786"/>
<path d="M5 4.7C5.33137 4.7 5.6 4.96863 5.6 5.3C5.6 5.63137 5.33137 5.9 5 5.9H2.6C2.26863 5.9 2 5.63137 2 5.3C2 4.96863 2.26863 4.7 2.6 4.7H5Z" fill="#828786"/>
<path d="M13.4 7.4C13.7314 7.4 14 7.66863 14 8C14 8.33137 13.7314 8.6 13.4 8.6H2.6C2.26863 8.6 2 8.33137 2 8C2 7.66863 2.26863 7.4 2.6 7.4H13.4Z" fill="#828786"/>
<path d="M5 10.1C5.33137 10.1 5.6 10.3686 5.6 10.7C5.6 11.0314 5.33137 11.3 5 11.3H2.6C2.26863 11.3 2 11.0314 2 10.7C2 10.3686 2.26863 10.1 2.6 10.1H5Z" fill="#828786"/>
<path d="M10.4 13.4V2.6C10.4 2.26863 10.6686 2 11 2C11.3314 2 11.6 2.26863 11.6 2.6V13.4C11.6 13.7314 11.3314 14 11 14C10.6686 14 10.4 13.7314 10.4 13.4Z" fill="#828786"/>
<path d="M13.4 4.7C13.7314 4.7 14 4.96863 14 5.3C14 5.63137 13.7314 5.9 13.4 5.9H11C10.6686 5.9 10.4 5.63137 10.4 5.3C10.4 4.96863 10.6686 4.7 11 4.7H13.4Z" fill="#828786"/>
<path d="M13.4 10.1C13.7314 10.1 14 10.3686 14 10.7C14 11.0314 13.7314 11.3 13.4 11.3H11C10.6686 11.3 10.4 11.0314 10.4 10.7C10.4 10.3686 10.6686 10.1 11 10.1H13.4Z" fill="#828786"/>
</svg>
