<svg width="206" height="61" viewBox="0 0 206 61" fill="none" xmlns="http://www.w3.org/2000/svg">
<g clip-path="url(#clip0_35_982)">
<path d="M44.5008 0.690016V25.656C44.5008 26.0324 44.1876 26.3461 43.8118 26.3461H37.0787C36.7029 26.3461 36.3898 26.0324 36.3898 25.656V11.6048C36.3898 11.0403 35.7321 10.7266 35.2937 11.0716L22.7984 20.9828C22.5479 21.1709 22.2034 21.1709 21.9529 20.9828L9.17574 10.9775C8.73731 10.6325 8.07966 10.9775 8.07966 11.5107V25.656C8.07966 26.0324 7.76649 26.3461 7.3907 26.3461H0.688963C0.313165 26.3461 0 26.0324 0 25.656V0.690016C0 0.313644 0.313165 0 0.688963 0H7.86044C7.86044 0 8.14229 0.0627287 8.26756 0.125457L22.0155 10.6012C22.266 10.7893 22.6105 10.7893 22.8297 10.6012L36.2645 0.156822C36.2645 0.156822 36.5464 0 36.6716 0H43.8431C44.2189 0 44.5321 0.313644 44.5321 0.690016H44.5008Z" fill="#680AFF"/>
<path d="M85.8072 26.3461H48.9477C48.5719 26.3461 48.2587 26.0324 48.2587 25.656V0.690016C48.2587 0.313644 48.5719 0 48.9477 0H85.8072C86.183 0 86.4962 0.313644 86.4962 0.690016V25.656C86.4962 26.0324 86.183 26.3461 85.8072 26.3461ZM78.2286 18.3795V7.87245C78.2286 7.49608 77.9155 7.18244 77.5397 7.18244H57.2153C56.8395 7.18244 56.5263 7.49608 56.5263 7.87245V18.3795C56.5263 18.7559 56.8395 19.0695 57.2153 19.0695H77.5397C77.9155 19.0695 78.2286 18.7559 78.2286 18.3795Z" fill="#680AFF"/>
<path d="M127.302 0.940931L116.247 25.907C116.153 26.1579 115.902 26.3147 115.621 26.3147H100.338V26.1265L89.1894 0.940931C89.0015 0.50183 89.3147 0 89.8158 0H97.1438C97.4257 0 97.6449 0.156822 97.7701 0.407737L105.599 18.6618C105.693 18.9127 105.944 19.0695 106.226 19.0695H110.203C110.485 19.0695 110.704 18.9127 110.829 18.6618L118.627 0.407737C118.721 0.156822 118.971 0 119.253 0H126.675C127.176 0 127.49 0.50183 127.302 0.940931Z" fill="#680AFF"/>
<path d="M152.01 7.93518V18.3795C152.01 18.7559 152.323 19.0695 152.699 19.0695H165.132C165.508 19.0695 165.821 19.3832 165.821 19.7595V25.656C165.821 26.0324 165.508 26.3461 165.132 26.3461H130.684C130.308 26.3461 129.995 26.0324 129.995 25.656V19.7595C129.995 19.3832 130.308 19.0695 130.684 19.0695H143.085C143.461 19.0695 143.774 18.7559 143.774 18.3795V7.93518C143.774 7.55881 143.461 7.24517 143.085 7.24517H130.684C130.308 7.24517 129.995 6.93152 129.995 6.55515V0.690016C129.995 0.313644 130.308 0 130.684 0H165.132C165.508 0 165.821 0.313644 165.821 0.690016V6.58651C165.821 6.96289 165.508 7.27653 165.132 7.27653H152.699C152.323 7.27653 152.01 7.59017 152.01 7.96655V7.93518Z" fill="#680AFF"/>
<path d="M177.815 7.15107V9.78568H202.743C203.119 9.78568 203.432 10.0993 203.432 10.4757V15.9645C203.432 16.3408 203.119 16.6545 202.743 16.6545H177.815V19.2263H205.311C205.687 19.2263 206 19.54 206 19.9164V25.7188C206 26.0951 205.687 26.4088 205.311 26.4088H170.237C169.861 26.4088 169.548 26.0951 169.548 25.7188V0.690016C169.548 0.313644 169.861 0 170.237 0H205.311C205.687 0 206 0.313644 206 0.690016V6.49242C206 6.86879 205.687 7.18244 205.311 7.18244H177.815V7.15107Z" fill="#680AFF"/>
<path d="M44.5008 46.827C44.5008 54.9503 38.2688 60 30.0325 60H0.688963C0.313165 60 0 59.6864 0 59.31V34.344C0 33.9676 0.313165 33.6539 0.688963 33.6539H30.0639C38.3001 33.6539 44.5321 38.6722 44.5321 46.827H44.5008ZM36.1079 46.827C36.1079 43.4396 33.54 40.8677 30.0639 40.8677H8.89389C8.51809 40.8677 8.20493 41.1814 8.20493 41.5578V52.0962C8.20493 52.4726 8.51809 52.7862 8.89389 52.7862H30.0325C33.54 52.7235 36.0766 50.183 36.0766 46.827H36.1079Z" fill="#680AFF"/>
<path d="M93.4485 34.1558C93.3545 33.8735 93.104 33.6539 92.7908 33.6539H78.8237C78.5105 33.6539 78.26 33.8735 78.166 34.1558L71.8088 58.275L68.1134 52.6607C67.9255 52.3471 67.9881 51.9707 68.3013 51.7512C70.8379 49.9007 72.2785 47.0152 72.2785 43.816C72.2785 38.2018 67.8316 33.6539 61.1298 33.6539H47.5071C47.1314 33.6539 46.8182 33.9676 46.8182 34.344V59.31C46.8182 59.6864 47.1314 60 47.5071 60H54.4594C54.8352 60 55.1484 59.6864 55.1484 59.31V54.6367C55.1484 54.2603 55.4615 53.9467 55.8373 53.9467H59.4701C59.7206 53.9467 59.9398 54.0721 60.0651 54.2917L63.228 59.655C63.3533 59.8745 63.5725 60 63.823 60H79.2308C79.5439 60 79.7945 59.7805 79.8884 59.4982L80.7027 56.3304C80.7653 56.0167 81.0471 55.8285 81.3603 55.8285H90.3481C90.6613 55.8285 90.9118 56.0481 91.0058 56.3304L91.82 59.4982C91.8826 59.8118 92.1645 60 92.4777 60H99.4612C99.8997 60 100.244 59.5923 100.119 59.1532L93.5424 34.1871L93.4485 34.1558ZM61.0985 46.7015H55.7747C55.3989 46.7015 55.0857 46.3879 55.0857 46.0115V41.5891C55.0857 41.2128 55.3989 40.8991 55.7747 40.8991H61.0985C62.6643 40.8991 63.9796 42.1851 63.9796 43.7846C63.9796 45.3842 62.6643 46.6702 61.0985 46.6702V46.7015ZM88.0307 48.4893H83.5525C83.114 48.4893 82.8009 48.0815 82.8948 47.6424L84.6172 40.9305H86.9346L88.657 47.6424C88.7823 48.0815 88.4378 48.4893 87.9994 48.4893H88.0307Z" fill="#680AFF"/>
<path d="M151.603 33.6539H103.125C102.749 33.6539 102.436 33.9676 102.436 34.344V59.31C102.436 59.6864 102.749 60 103.125 60H110.046C110.422 60 110.735 59.6864 110.735 59.31V52.253C110.735 51.8766 111.048 51.563 111.424 51.563H128.961C129.337 51.563 129.65 51.2493 129.65 50.873V45.0706C129.65 44.6942 129.337 44.3806 128.961 44.3806H110.766V40.8677H134.661C135.037 40.8677 135.35 41.1814 135.35 41.5578V59.2786C135.35 59.655 135.663 59.9686 136.039 59.9686H142.96C143.336 59.9686 143.649 59.655 143.649 59.2786V41.5578C143.649 41.1814 143.962 40.8677 144.338 40.8677H151.728C152.104 40.8677 152.417 40.5541 152.417 40.1777V34.2812C152.417 33.9049 152.104 33.5912 151.728 33.5912L151.603 33.6539Z" fill="#680AFF"/>
<path d="M163.472 40.805V43.4396H173.4C173.775 43.4396 174.088 43.7533 174.088 44.1296V49.6184C174.088 49.9948 173.775 50.3084 173.4 50.3084H163.472V52.8176H175.936C176.312 52.8176 176.625 53.1312 176.625 53.5076V59.3414C176.625 59.7177 176.312 60.0314 175.936 60.0314H155.894C155.518 60.0314 155.205 59.7177 155.205 59.3414V34.3753C155.205 33.999 155.518 33.6853 155.894 33.6853H175.936C176.312 33.6853 176.625 33.999 176.625 34.3753V40.1777C176.625 40.5541 176.312 40.8677 175.936 40.8677H163.472V40.805Z" fill="#680AFF"/>
<path d="M179.976 34.344C179.976 33.9676 180.289 33.6539 180.665 33.6539H194.288C201.021 33.6539 205.436 38.2018 205.436 43.816C205.436 47.0152 203.996 49.9007 201.459 51.7512C201.177 51.9707 201.083 52.3471 201.271 52.6607L205.405 58.9336C205.687 59.3727 205.405 60 204.841 60H196.918C196.668 60 196.448 59.8745 196.323 59.655L193.16 54.2917C193.035 54.0721 192.816 53.9467 192.565 53.9467H188.933C188.557 53.9467 188.244 54.2603 188.244 54.6367V59.31C188.244 59.6864 187.93 60 187.555 60H180.602C180.227 60 179.913 59.6864 179.913 59.31V34.344H179.976ZM194.288 46.7015C195.853 46.7015 197.169 45.4156 197.169 43.816C197.169 42.2164 195.853 40.9305 194.288 40.9305H188.964C188.588 40.9305 188.275 41.2441 188.275 41.6205V46.0429C188.275 46.4192 188.588 46.7329 188.964 46.7329H194.288V46.7015Z" fill="#680AFF"/>
</g>
<defs>
<clipPath id="clip0_35_982">
<rect width="206" height="60.0314" fill="white"/>
</clipPath>
</defs>
</svg>
