<svg width="93" height="27" viewBox="0 0 93 27" fill="none" xmlns="http://www.w3.org/2000/svg">
<path d="M44.5008 0.690016V25.656C44.5008 26.0324 44.1876 26.3461 43.8118 26.3461H37.0787C36.7029 26.3461 36.3898 26.0324 36.3898 25.656V11.6048C36.3898 11.0403 35.7321 10.7266 35.2937 11.0716L22.7984 20.9828C22.5479 21.1709 22.2034 21.1709 21.9529 20.9828L9.17574 10.9775C8.73731 10.6325 8.07966 10.9775 8.07966 11.5107V25.656C8.07966 26.0324 7.76649 26.3461 7.3907 26.3461H0.688963C0.313165 26.3461 0 26.0324 0 25.656V0.690016C0 0.313644 0.313165 0 0.688963 0H7.86044C7.86044 0 8.14229 0.0627287 8.26756 0.125457L22.0155 10.6012C22.266 10.7893 22.6105 10.7893 22.8297 10.6012L36.2645 0.156822C36.2645 0.156822 36.5464 0 36.6716 0H43.8431C44.2189 0 44.5321 0.313644 44.5321 0.690016H44.5008Z" fill="#680AFF"/>
<path d="M92.0328 13.173C92.0328 21.2964 85.8009 26.3461 77.5646 26.3461H48.221C47.8452 26.3461 47.5321 26.0324 47.5321 25.656V0.690017C47.5321 0.313644 47.8452 0 48.221 0H77.5959C85.8322 0 92.0642 5.0183 92.0642 13.173H92.0328ZM83.64 13.173C83.64 9.78568 81.0721 7.2138 77.5959 7.2138H56.426C56.0502 7.2138 55.737 7.52745 55.737 7.90382V18.4422C55.737 18.8186 56.0502 19.1323 56.426 19.1323H77.5646C81.0721 19.0695 83.6087 16.529 83.6087 13.173H83.64Z" fill="#680AFF"/>
</svg>
