<svg width="45" height="57" viewBox="0 0 45 57" fill="none" xmlns="http://www.w3.org/2000/svg">
<path d="M44.5008 0.690016V25.656C44.5008 26.0324 44.1876 26.3461 43.8118 26.3461H37.0787C36.7029 26.3461 36.3898 26.0324 36.3898 25.656V11.6048C36.3898 11.0403 35.7321 10.7266 35.2937 11.0716L22.7984 20.9828C22.5479 21.1709 22.2034 21.1709 21.9529 20.9828L9.17574 10.9775C8.73731 10.6325 8.07966 10.9775 8.07966 11.5107V25.656C8.07966 26.0324 7.76649 26.3461 7.3907 26.3461H0.688963C0.313165 26.3461 0 26.0324 0 25.656V0.690016C0 0.313644 0.313165 0 0.688963 0H7.86044C7.86044 0 8.14229 0.0627287 8.26756 0.125457L22.0155 10.6012C22.266 10.7893 22.6105 10.7893 22.8297 10.6012L36.2645 0.156822C36.2645 0.156822 36.5464 0 36.6716 0H43.8431C44.2189 0 44.5321 0.313644 44.5321 0.690016H44.5008Z" fill="#680AFF"/>
<path d="M44.5008 43.5191C44.5008 51.6425 38.2688 56.6921 30.0325 56.6921H0.688963C0.313165 56.6921 0 56.3785 0 56.0021V31.0361C0 30.6597 0.313165 30.3461 0.688963 30.3461H30.0639C38.3001 30.3461 44.5321 35.3644 44.5321 43.5191H44.5008ZM36.1079 43.5191C36.1079 40.1317 33.54 37.5599 30.0639 37.5599H8.89389C8.51809 37.5599 8.20493 37.8735 8.20493 38.2499V48.7883C8.20493 49.1647 8.51809 49.4783 8.89389 49.4783H30.0325C33.54 49.4156 36.0766 46.8751 36.0766 43.5191H36.1079Z" fill="#680AFF"/>
</svg>
