<svg width="72" height="72" viewBox="0 0 72 72" fill="none" xmlns="http://www.w3.org/2000/svg">
<path d="M41.0215 69.1599L50.7815 61.5999H45.5015C37.5015 61.1199 34.5015 56.3999 34.5015 51.3999C34.5015 46.4399 37.4215 40.6799 46.6215 40.6799H57.3415C66.5415 40.6799 69.4615 46.4399 69.4615 51.3999C69.4615 54.3199 68.3815 57.2799 65.6615 59.3199L53.1015 69.1599H41.0215ZM46.6215 54.4799H57.3415C59.5415 54.4799 60.5015 52.9199 60.5015 51.3999C60.5015 49.8799 59.5415 48.3199 57.3415 48.3199H46.6215C44.4215 48.3199 43.4615 49.8799 43.4615 51.3999C43.4615 52.9199 44.4215 54.4799 46.6215 54.4799Z" fill="white"/>
<path d="M14.32 69.48C3.4 69.48 2 62.08 2 59.36H10.04C10.12 60.68 11.04 61.84 14.32 61.84H19.72C22.12 61.84 23.16 60.92 23.16 59.84C23.16 58.72 22.12 58.12 20.36 58.12H11.24V51.92H19.56C21.32 51.92 22.36 51.32 22.36 50.16C22.36 49.12 21.48 48.2 19.28 48.16H13.68C11.2 48.16 10.28 49.36 10.28 50.64H2.24C2.24 45.68 5 40.52 13.84 40.52H19.28C28.48 40.52 31.32 44.88 31.32 49.16C31.32 51.2 30.52 53.08 28.56 54.36C30.72 55.48 32.12 57.36 32.12 60.2C32.12 65.12 28.72 69.48 19.72 69.48H14.32Z" fill="white"/>
<path d="M41.0012 31.1599L50.7612 23.5999H45.4812C37.4812 23.1199 34.4812 18.3999 34.4812 13.3999C34.4812 8.43993 37.4012 2.67993 46.6012 2.67993H57.3212C66.5212 2.67993 69.4412 8.43993 69.4412 13.3999C69.4412 16.3199 68.3612 19.2799 65.6412 21.3199L53.0812 31.1599H41.0012ZM46.6012 16.4799H57.3212C59.5212 16.4799 60.4812 14.9199 60.4812 13.3999C60.4812 11.8799 59.5212 10.3199 57.3212 10.3199H46.6012C44.4012 10.3199 43.4412 11.8799 43.4412 13.3999C43.4412 14.9199 44.4012 16.4799 46.6012 16.4799Z" fill="white"/>
<path d="M22.48 3H31.28V31H22.48V10.68L2 12.28V4.6L22.48 3Z" fill="white"/>
</svg>
