<svg width="72" height="72" viewBox="0 0 72 72" fill="none" xmlns="http://www.w3.org/2000/svg">
<path d="M54.6252 69.48C45.5452 69.48 39.8252 63.2 39.8252 55C39.8252 46.84 45.5452 40.52 54.6252 40.52H54.7452C63.8252 40.52 69.5452 46.84 69.5452 55C69.5452 63.2 63.8252 69.48 54.7452 69.48H54.6252ZM54.6252 61H54.7452C58.3452 61 60.5852 58.6 60.5852 55C60.5852 51.44 58.3452 49 54.7452 49H54.6252C51.0252 49 48.7852 51.44 48.7852 55C48.7852 58.6 51.0252 61 54.6252 61Z" fill="white"/>
<path d="M38.64 57.44V64.92H36.08V69H27.68V64.88L2 64.84V57.24L8.4 41H36.08V57.44H38.64ZM10.52 57.44H27.68V48.72H13.96L10.52 57.44Z" fill="white"/>
<path d="M41.0014 31.1599L50.7614 23.5999H45.4814C37.4814 23.1199 34.4814 18.3999 34.4814 13.3999C34.4814 8.43993 37.4014 2.67993 46.6014 2.67993H57.3214C66.5214 2.67993 69.4414 8.43993 69.4414 13.3999C69.4414 16.3199 68.3614 19.2799 65.6414 21.3199L53.0814 31.1599H41.0014ZM46.6014 16.4799H57.3214C59.5214 16.4799 60.4814 14.9199 60.4814 13.3999C60.4814 11.8799 59.5214 10.3199 57.3214 10.3199H46.6014C44.4014 10.3199 43.4414 11.8799 43.4414 13.3999C43.4414 14.9199 44.4014 16.4799 46.6014 16.4799Z" fill="white"/>
<path d="M22.48 3H31.28V31H22.48V10.68L2 12.28V4.6L22.48 3Z" fill="white"/>
</svg>
