<svg width="72" height="72" viewBox="0 0 72 72" fill="none" xmlns="http://www.w3.org/2000/svg">
<path d="M38.0732 69V61.68C38.0732 56.64 41.1932 54.2 46.9132 53.28L57.4732 52.12C58.8732 51.92 59.8332 51.24 59.8332 50.16C59.8332 49.08 59.0732 48.16 56.5132 48.16H50.9932C48.5132 48.16 47.5932 49.32 47.5132 50.64H38.6732C38.6732 47.92 40.0732 40.52 50.9932 40.52H56.5132C65.3532 40.52 68.7932 45.16 68.7932 50.08C68.7932 55.04 66.0332 57.56 59.8332 58.64L48.5532 60.04C47.1532 60.28 46.6732 60.92 46.6732 61.68H68.3932V69H38.0732Z" fill="white"/>
<path d="M33.28 57.44V64.92H30.72V69H22.32V64.88L2 64.84V57.24L8.4 41H30.72V57.44H33.28ZM10.52 57.44H22.32V48.72H13.96L10.52 57.44Z" fill="white"/>
<path d="M41.0014 31.1599L50.7614 23.5999H45.4814C37.4814 23.1199 34.4814 18.3999 34.4814 13.3999C34.4814 8.43993 37.4014 2.67993 46.6014 2.67993H57.3214C66.5214 2.67993 69.4414 8.43993 69.4414 13.3999C69.4414 16.3199 68.3614 19.2799 65.6414 21.3199L53.0814 31.1599H41.0014ZM46.6014 16.4799H57.3214C59.5214 16.4799 60.4814 14.9199 60.4814 13.3999C60.4814 11.8799 59.5214 10.3199 57.3214 10.3199H46.6014C44.4014 10.3199 43.4414 11.8799 43.4414 13.3999C43.4414 14.9199 44.4014 16.4799 46.6014 16.4799Z" fill="white"/>
<path d="M22.48 3H31.28V31H22.48V10.68L2 12.28V4.6L22.48 3Z" fill="white"/>
</svg>
