<svg width="72" height="72" viewBox="0 0 72 72" fill="none" xmlns="http://www.w3.org/2000/svg">
<path d="M50.3932 69.48C39.4732 69.48 38.0732 62.08 38.0732 59.36H46.1132C46.1932 60.68 47.1132 61.84 50.3932 61.84H55.7932C58.1932 61.84 59.2332 60.92 59.2332 59.84C59.2332 58.72 58.1932 58.12 56.4332 58.12H47.3132V51.92H55.6332C57.3932 51.92 58.4332 51.32 58.4332 50.16C58.4332 49.12 57.5532 48.2 55.3532 48.16H49.7532C47.2732 48.16 46.3532 49.36 46.3532 50.64H38.3132C38.3132 45.68 41.0732 40.52 49.9132 40.52H55.3532C64.5532 40.52 67.3932 44.88 67.3932 49.16C67.3932 51.2 66.5932 53.08 64.6332 54.36C66.7932 55.48 68.1932 57.36 68.1932 60.2C68.1932 65.12 64.7932 69.48 55.7932 69.48H50.3932Z" fill="white"/>
<path d="M33.28 57.44V64.92H30.72V69H22.32V64.88L2 64.84V57.24L8.4 41H30.72V57.44H33.28ZM10.52 57.44H22.32V48.72H13.96L10.52 57.44Z" fill="white"/>
<path d="M41.0014 31.1599L50.7614 23.5999H45.4814C37.4814 23.1199 34.4814 18.3999 34.4814 13.3999C34.4814 8.43993 37.4014 2.67993 46.6014 2.67993H57.3214C66.5214 2.67993 69.4414 8.43993 69.4414 13.3999C69.4414 16.3199 68.3614 19.2799 65.6414 21.3199L53.0814 31.1599H41.0014ZM46.6014 16.4799H57.3214C59.5214 16.4799 60.4814 14.9199 60.4814 13.3999C60.4814 11.8799 59.5214 10.3199 57.3214 10.3199H46.6014C44.4014 10.3199 43.4414 11.8799 43.4414 13.3999C43.4414 14.9199 44.4014 16.4799 46.6014 16.4799Z" fill="white"/>
<path d="M22.48 3H31.28V31H22.48V10.68L2 12.28V4.6L22.48 3Z" fill="white"/>
</svg>
