<svg width="72" height="72" viewBox="0 0 72 72" fill="none" xmlns="http://www.w3.org/2000/svg">
<path d="M50.3932 69.48C39.4732 69.48 38.0732 62.08 38.0732 59.36H46.9132C46.9932 60.68 47.9132 61.84 50.3932 61.84H55.7932C58.1132 61.84 59.2332 60.92 59.2732 59.56C59.2732 58.52 58.2732 57.56 56.0332 57.56H38.2332L39.4732 41H66.8332V48.72H47.0732L46.9532 50.72H57.0332C65.0732 50.72 68.2332 54.84 68.2332 59.56H68.1932C68.1932 64.32 65.3932 69.48 55.7932 69.48H50.3932Z" fill="white"/>
<path d="M33.28 57.44V64.92H30.72V69H22.32V64.88L2 64.84V57.24L8.4 41H30.72V57.44H33.28ZM10.52 57.44H22.32V48.72H13.96L10.52 57.44Z" fill="white"/>
<path d="M41.0014 31.1599L50.7614 23.5999H45.4814C37.4814 23.1199 34.4814 18.3999 34.4814 13.3999C34.4814 8.43993 37.4014 2.67993 46.6014 2.67993H57.3214C66.5214 2.67993 69.4414 8.43993 69.4414 13.3999C69.4414 16.3199 68.3614 19.2799 65.6414 21.3199L53.0814 31.1599H41.0014ZM46.6014 16.4799H57.3214C59.5214 16.4799 60.4814 14.9199 60.4814 13.3999C60.4814 11.8799 59.5214 10.3199 57.3214 10.3199H46.6014C44.4014 10.3199 43.4414 11.8799 43.4414 13.3999C43.4414 14.9199 44.4014 16.4799 46.6014 16.4799Z" fill="white"/>
<path d="M22.48 3H31.28V31H22.48V10.68L2 12.28V4.6L22.48 3Z" fill="white"/>
</svg>
