<svg width="72" height="72" viewBox="0 0 72 72" fill="none" xmlns="http://www.w3.org/2000/svg">
<path d="M49.3934 69.48C40.1934 69.48 37.2734 63.72 37.2734 58.76C37.2734 56.16 38.1134 53.44 40.2734 51.48L50.9534 41H62.3534L54.3934 48.64L57.0334 48.68C63.8334 49.6 66.9134 53.76 66.9134 58.76C66.9134 63.72 63.9934 69.48 54.7934 69.48H49.3934ZM49.3934 61.84H54.7934C56.9934 61.84 57.9534 60.28 57.9534 58.76C57.9534 57.24 56.9934 55.68 54.7934 55.68H49.3934C47.1934 55.68 46.2334 57.24 46.2334 58.76C46.2334 60.28 47.1934 61.84 49.3934 61.84Z" fill="white"/>
<path d="M33.28 57.44V64.92H30.72V69H22.32V64.88L2 64.84V57.24L8.4 41H30.72V57.44H33.28ZM10.52 57.44H22.32V48.72H13.96L10.52 57.44Z" fill="white"/>
<path d="M41.0014 31.1599L50.7614 23.5999H45.4814C37.4814 23.1199 34.4814 18.3999 34.4814 13.3999C34.4814 8.43993 37.4014 2.67993 46.6014 2.67993H57.3214C66.5214 2.67993 69.4414 8.43993 69.4414 13.3999C69.4414 16.3199 68.3614 19.2799 65.6414 21.3199L53.0814 31.1599H41.0014ZM46.6014 16.4799H57.3214C59.5214 16.4799 60.4814 14.9199 60.4814 13.3999C60.4814 11.8799 59.5214 10.3199 57.3214 10.3199H46.6014C44.4014 10.3199 43.4414 11.8799 43.4414 13.3999C43.4414 14.9199 44.4014 16.4799 46.6014 16.4799Z" fill="white"/>
<path d="M22.48 3H31.28V31H22.48V10.68L2 12.28V4.6L22.48 3Z" fill="white"/>
</svg>
