<svg width="72" height="72" viewBox="0 0 72 72" fill="none" xmlns="http://www.w3.org/2000/svg">
<path d="M64.1932 54.56C66.6332 55.64 68.3532 57.84 68.3532 61.08C68.3532 65.64 65.3132 69.48 55.9132 69.48H50.5132C41.1132 69.48 38.0732 65.64 38.0732 61.08C38.0732 57.84 39.7932 55.64 42.2332 54.56C40.3532 53.64 38.6332 51.56 38.6332 48.72C38.6332 43.92 42.2732 40.52 50.5132 40.52H55.9132C64.1532 40.52 67.7932 43.92 67.7932 48.72C67.7932 51.56 66.0732 53.64 64.1932 54.56ZM50.5132 47.32C48.4732 47.32 47.2332 48.16 47.2332 49.68C47.2332 51.2 48.4732 52.04 50.5132 52.04H55.9132C57.9532 52.04 59.1932 51.2 59.1932 49.68C59.1932 48.16 57.9532 47.32 55.9132 47.32H50.5132ZM55.9132 62.64C58.1132 62.64 59.3532 61.8 59.3532 60.28C59.3532 58.76 58.1132 57.96 55.9132 57.96H50.5132C48.3132 57.96 47.0732 58.76 47.0732 60.28C47.0732 61.8 48.3132 62.64 50.5132 62.64H55.9132Z" fill="white"/>
<path d="M33.28 57.44V64.92H30.72V69H22.32V64.88L2 64.84V57.24L8.4 41H30.72V57.44H33.28ZM10.52 57.44H22.32V48.72H13.96L10.52 57.44Z" fill="white"/>
<path d="M41.0014 31.1599L50.7614 23.5999H45.4814C37.4814 23.1199 34.4814 18.3999 34.4814 13.3999C34.4814 8.43993 37.4014 2.67993 46.6014 2.67993H57.3214C66.5214 2.67993 69.4414 8.43993 69.4414 13.3999C69.4414 16.3199 68.3614 19.2799 65.6414 21.3199L53.0814 31.1599H41.0014ZM46.6014 16.4799H57.3214C59.5214 16.4799 60.4814 14.9199 60.4814 13.3999C60.4814 11.8799 59.5214 10.3199 57.3214 10.3199H46.6014C44.4014 10.3199 43.4414 11.8799 43.4414 13.3999C43.4414 14.9199 44.4014 16.4799 46.6014 16.4799Z" fill="white"/>
<path d="M22.48 3H31.28V31H22.48V10.68L2 12.28V4.6L22.48 3Z" fill="white"/>
</svg>
