<svg width="72" height="72" viewBox="0 0 72 72" fill="none" xmlns="http://www.w3.org/2000/svg">
<path d="M36.9404 69V61.68C36.9404 56.64 40.0604 54.2 45.7804 53.28L56.3404 52.12C57.7404 51.92 58.7004 51.24 58.7004 50.16C58.7004 49.08 57.9404 48.16 55.3804 48.16H49.8604C47.3804 48.16 46.4604 49.32 46.3804 50.64H37.5404C37.5404 47.92 38.9404 40.52 49.8604 40.52H55.3804C64.2204 40.52 67.6604 45.16 67.6604 50.08C67.6604 55.04 64.9004 57.56 58.7004 58.64L47.4204 60.04C46.0204 60.28 45.5404 60.92 45.5404 61.68H67.2604V69H36.9404Z" fill="white"/>
<path d="M14.32 69.48C3.4 69.48 2 62.08 2 59.36H10.84C10.92 60.68 11.84 61.84 14.32 61.84H19.72C22.04 61.84 23.16 60.92 23.2 59.56C23.2 58.52 22.2 57.56 19.96 57.56H2.16L3.4 41H30.76V48.72H11L10.88 50.72H20.96C29 50.72 32.16 54.84 32.16 59.56H32.12C32.12 64.32 29.32 69.48 19.72 69.48H14.32Z" fill="white"/>
<path d="M41.0014 31.1599L50.7614 23.5999H45.4814C37.4814 23.1199 34.4814 18.3999 34.4814 13.3999C34.4814 8.43993 37.4014 2.67993 46.6014 2.67993H57.3214C66.5214 2.67993 69.4414 8.43993 69.4414 13.3999C69.4414 16.3199 68.3614 19.2799 65.6414 21.3199L53.0814 31.1599H41.0014ZM46.6014 16.4799H57.3214C59.5214 16.4799 60.4814 14.9199 60.4814 13.3999C60.4814 11.8799 59.5214 10.3199 57.3214 10.3199H46.6014C44.4014 10.3199 43.4414 11.8799 43.4414 13.3999C43.4414 14.9199 44.4014 16.4799 46.6014 16.4799Z" fill="white"/>
<path d="M22.48 3H31.28V31H22.48V10.68L2 12.28V4.6L22.48 3Z" fill="white"/>
</svg>
