<svg width="72" height="72" viewBox="0 0 72 72" fill="none" xmlns="http://www.w3.org/2000/svg">
<path d="M50.0607 69.48C39.1407 69.48 37.7407 62.08 37.7407 59.36H45.7807C45.8607 60.68 46.7807 61.84 50.0607 61.84H55.4607C57.8607 61.84 58.9007 60.92 58.9007 59.84C58.9007 58.72 57.8607 58.12 56.1007 58.12H46.9807V51.92H55.3007C57.0607 51.92 58.1007 51.32 58.1007 50.16C58.1007 49.12 57.2207 48.2 55.0207 48.16H49.4207C46.9407 48.16 46.0207 49.36 46.0207 50.64H37.9807C37.9807 45.68 40.7407 40.52 49.5807 40.52H55.0207C64.2207 40.52 67.0607 44.88 67.0607 49.16C67.0607 51.2 66.2607 53.08 64.3007 54.36C66.4607 55.48 67.8607 57.36 67.8607 60.2C67.8607 65.12 64.4607 69.48 55.4607 69.48H50.0607Z" fill="white"/>
<path d="M14.32 69.48C3.4 69.48 2 62.08 2 59.36H10.84C10.92 60.68 11.84 61.84 14.32 61.84H19.72C22.04 61.84 23.16 60.92 23.2 59.56C23.2 58.52 22.2 57.56 19.96 57.56H2.16L3.4 41H30.76V48.72H11L10.88 50.72H20.96C29 50.72 32.16 54.84 32.16 59.56H32.12C32.12 64.32 29.32 69.48 19.72 69.48H14.32Z" fill="white"/>
<path d="M41.0014 31.1599L50.7614 23.5999H45.4814C37.4814 23.1199 34.4814 18.3999 34.4814 13.3999C34.4814 8.43993 37.4014 2.67993 46.6014 2.67993H57.3214C66.5214 2.67993 69.4414 8.43993 69.4414 13.3999C69.4414 16.3199 68.3614 19.2799 65.6414 21.3199L53.0814 31.1599H41.0014ZM46.6014 16.4799H57.3214C59.5214 16.4799 60.4814 14.9199 60.4814 13.3999C60.4814 11.8799 59.5214 10.3199 57.3214 10.3199H46.6014C44.4014 10.3199 43.4414 11.8799 43.4414 13.3999C43.4414 14.9199 44.4014 16.4799 46.6014 16.4799Z" fill="white"/>
<path d="M22.48 3H31.28V31H22.48V10.68L2 12.28V4.6L22.48 3Z" fill="white"/>
</svg>
