<svg width="72" height="72" viewBox="0 0 72 72" fill="none" xmlns="http://www.w3.org/2000/svg">
<path d="M48.6605 69.48C39.4605 69.48 36.5405 63.72 36.5405 58.76C36.5405 56.16 37.3805 53.44 39.5405 51.48L50.2205 41H61.6205L53.6605 48.64L56.3005 48.68C63.1005 49.6 66.1805 53.76 66.1805 58.76C66.1805 63.72 63.2605 69.48 54.0605 69.48H48.6605ZM48.6605 61.84H54.0605C56.2605 61.84 57.2205 60.28 57.2205 58.76C57.2205 57.24 56.2605 55.68 54.0605 55.68H48.6605C46.4605 55.68 45.5005 57.24 45.5005 58.76C45.5005 60.28 46.4605 61.84 48.6605 61.84Z" fill="white"/>
<path d="M14.32 69.48C3.4 69.48 2 62.08 2 59.36H10.84C10.92 60.68 11.84 61.84 14.32 61.84H19.72C22.04 61.84 23.16 60.92 23.2 59.56C23.2 58.52 22.2 57.56 19.96 57.56H2.16L3.4 41H30.76V48.72H11L10.88 50.72H20.96C29 50.72 32.16 54.84 32.16 59.56H32.12C32.12 64.32 29.32 69.48 19.72 69.48H14.32Z" fill="white"/>
<path d="M41.0014 31.1599L50.7614 23.5999H45.4814C37.4814 23.1199 34.4814 18.3999 34.4814 13.3999C34.4814 8.43993 37.4014 2.67993 46.6014 2.67993H57.3214C66.5214 2.67993 69.4414 8.43993 69.4414 13.3999C69.4414 16.3199 68.3614 19.2799 65.6414 21.3199L53.0814 31.1599H41.0014ZM46.6014 16.4799H57.3214C59.5214 16.4799 60.4814 14.9199 60.4814 13.3999C60.4814 11.8799 59.5214 10.3199 57.3214 10.3199H46.6014C44.4014 10.3199 43.4414 11.8799 43.4414 13.3999C43.4414 14.9199 44.4014 16.4799 46.6014 16.4799Z" fill="white"/>
<path d="M22.48 3H31.28V31H22.48V10.68L2 12.28V4.6L22.48 3Z" fill="white"/>
</svg>
