<svg width="72" height="72" viewBox="0 0 72 72" fill="none" xmlns="http://www.w3.org/2000/svg">
<path d="M63.4608 54.56C65.9008 55.64 67.6208 57.84 67.6208 61.08C67.6208 65.64 64.5808 69.48 55.1808 69.48H49.7808C40.3808 69.48 37.3408 65.64 37.3408 61.08C37.3408 57.84 39.0608 55.64 41.5008 54.56C39.6208 53.64 37.9008 51.56 37.9008 48.72C37.9008 43.92 41.5408 40.52 49.7808 40.52H55.1808C63.4208 40.52 67.0608 43.92 67.0608 48.72C67.0608 51.56 65.3408 53.64 63.4608 54.56ZM49.7808 47.32C47.7408 47.32 46.5008 48.16 46.5008 49.68C46.5008 51.2 47.7408 52.04 49.7808 52.04H55.1808C57.2208 52.04 58.4608 51.2 58.4608 49.68C58.4608 48.16 57.2208 47.32 55.1808 47.32H49.7808ZM55.1808 62.64C57.3808 62.64 58.6208 61.8 58.6208 60.28C58.6208 58.76 57.3808 57.96 55.1808 57.96H49.7808C47.5808 57.96 46.3408 58.76 46.3408 60.28C46.3408 61.8 47.5808 62.64 49.7808 62.64H55.1808Z" fill="white"/>
<path d="M14.32 69.48C3.4 69.48 2 62.08 2 59.36H10.84C10.92 60.68 11.84 61.84 14.32 61.84H19.72C22.04 61.84 23.16 60.92 23.2 59.56C23.2 58.52 22.2 57.56 19.96 57.56H2.16L3.4 41H30.76V48.72H11L10.88 50.72H20.96C29 50.72 32.16 54.84 32.16 59.56H32.12C32.12 64.32 29.32 69.48 19.72 69.48H14.32Z" fill="white"/>
<path d="M41.0014 31.1599L50.7614 23.5999H45.4814C37.4814 23.1199 34.4814 18.3999 34.4814 13.3999C34.4814 8.43993 37.4014 2.67993 46.6014 2.67993H57.3214C66.5214 2.67993 69.4414 8.43993 69.4414 13.3999C69.4414 16.3199 68.3614 19.2799 65.6414 21.3199L53.0814 31.1599H41.0014ZM46.6014 16.4799H57.3214C59.5214 16.4799 60.4814 14.9199 60.4814 13.3999C60.4814 11.8799 59.5214 10.3199 57.3214 10.3199H46.6014C44.4014 10.3199 43.4414 11.8799 43.4414 13.3999C43.4414 14.9199 44.4014 16.4799 46.6014 16.4799Z" fill="white"/>
<path d="M22.48 3H31.28V31H22.48V10.68L2 12.28V4.6L22.48 3Z" fill="white"/>
</svg>
