<svg width="72" height="72" viewBox="0 0 72 72" fill="none" xmlns="http://www.w3.org/2000/svg">
<path d="M40.2607 69.1599L50.0207 61.5999H44.7407C36.7407 61.1199 33.7407 56.3999 33.7407 51.3999C33.7407 46.4399 36.6607 40.6799 45.8607 40.6799H56.5807C65.7807 40.6799 68.7007 46.4399 68.7007 51.3999C68.7007 54.3199 67.6207 57.2799 64.9007 59.3199L52.3407 69.1599H40.2607ZM45.8607 54.4799H56.5807C58.7807 54.4799 59.7407 52.9199 59.7407 51.3999C59.7407 49.8799 58.7807 48.3199 56.5807 48.3199H45.8607C43.6607 48.3199 42.7007 49.8799 42.7007 51.3999C42.7007 52.9199 43.6607 54.4799 45.8607 54.4799Z" fill="white"/>
<path d="M14.32 69.48C3.4 69.48 2 62.08 2 59.36H10.84C10.92 60.68 11.84 61.84 14.32 61.84H19.72C22.04 61.84 23.16 60.92 23.2 59.56C23.2 58.52 22.2 57.56 19.96 57.56H2.16L3.4 41H30.76V48.72H11L10.88 50.72H20.96C29 50.72 32.16 54.84 32.16 59.56H32.12C32.12 64.32 29.32 69.48 19.72 69.48H14.32Z" fill="white"/>
<path d="M41.0014 31.1599L50.7614 23.5999H45.4814C37.4814 23.1199 34.4814 18.3999 34.4814 13.3999C34.4814 8.43993 37.4014 2.67993 46.6014 2.67993H57.3214C66.5214 2.67993 69.4414 8.43993 69.4414 13.3999C69.4414 16.3199 68.3614 19.2799 65.6414 21.3199L53.0814 31.1599H41.0014ZM46.6014 16.4799H57.3214C59.5214 16.4799 60.4814 14.9199 60.4814 13.3999C60.4814 11.8799 59.5214 10.3199 57.3214 10.3199H46.6014C44.4014 10.3199 43.4414 11.8799 43.4414 13.3999C43.4414 14.9199 44.4014 16.4799 46.6014 16.4799Z" fill="white"/>
<path d="M22.48 3H31.28V31H22.48V10.68L2 12.28V4.6L22.48 3Z" fill="white"/>
</svg>
