<svg width="72" height="72" viewBox="0 0 72 72" fill="none" xmlns="http://www.w3.org/2000/svg">
<path d="M57.8238 41H66.6237V69H57.8238V48.68L37.3438 50.28V42.6L57.8238 41Z" fill="white"/>
<path d="M13.3202 69.48C4.1202 69.48 1.2002 63.72 1.2002 58.76C1.2002 55.84 2.2002 52.8 5.0002 50.84L17.5202 41H29.6402L20.0802 48.56H25.1202C33.1202 49.04 36.1602 53.76 36.1602 58.76C36.1602 63.72 33.2402 69.48 24.0402 69.48H13.3202ZM13.3202 61.84H24.0402C26.2402 61.84 27.2002 60.28 27.2002 58.76C27.2002 57.24 26.2402 55.68 24.0402 55.68H13.3202C11.1202 55.68 10.1602 57.24 10.1602 58.76C10.1602 60.28 11.1202 61.84 13.3202 61.84Z" fill="white"/>
<path d="M41.0014 31.1599L50.7614 23.5999H45.4814C37.4814 23.1199 34.4814 18.3999 34.4814 13.3999C34.4814 8.43993 37.4014 2.67993 46.6014 2.67993H57.3214C66.5214 2.67993 69.4414 8.43993 69.4414 13.3999C69.4414 16.3199 68.3614 19.2799 65.6414 21.3199L53.0814 31.1599H41.0014ZM46.6014 16.4799H57.3214C59.5214 16.4799 60.4814 14.9199 60.4814 13.3999C60.4814 11.8799 59.5214 10.3199 57.3214 10.3199H46.6014C44.4014 10.3199 43.4414 11.8799 43.4414 13.3999C43.4414 14.9199 44.4014 16.4799 46.6014 16.4799Z" fill="white"/>
<path d="M22.48 3H31.28V31H22.48V10.68L2 12.28V4.6L22.48 3Z" fill="white"/>
</svg>
