<svg width="72" height="72" viewBox="0 0 72 72" fill="none" xmlns="http://www.w3.org/2000/svg">
<path d="M45.9513 69.48C35.0313 69.48 33.6313 62.08 33.6313 59.36H41.6713C41.7513 60.68 42.6713 61.84 45.9513 61.84H56.6713C59.0713 61.84 60.1113 60.92 60.1113 59.84C60.1113 58.72 59.0714 58.12 57.3113 58.12H42.8313V51.92H56.5113C58.2713 51.92 59.3113 51.32 59.3113 50.16C59.3113 49.12 58.4313 48.2 56.1913 48.16H45.3113C42.8313 48.16 41.9113 49.36 41.9113 50.64H33.8713C33.8713 45.68 36.6313 40.52 45.5113 40.52H56.2313C65.4313 40.52 68.2714 44.88 68.2714 49.16C68.2714 51.2 67.4713 53.08 65.5113 54.36C67.6713 55.48 69.0713 57.36 69.0713 60.2C69.0713 65.12 65.6713 69.48 56.6713 69.48H45.9513Z" fill="white"/>
<path d="M13.3202 69.48C4.1202 69.48 1.2002 63.72 1.2002 58.76C1.2002 56.16 2.0402 53.44 4.2002 51.48L14.8802 41H26.2802L18.3202 48.64L20.9602 48.68C27.7602 49.6 30.8402 53.76 30.8402 58.76C30.8402 63.72 27.9202 69.48 18.7202 69.48H13.3202ZM13.3202 61.84H18.7202C20.9202 61.84 21.8802 60.28 21.8802 58.76C21.8802 57.24 20.9202 55.68 18.7202 55.68H13.3202C11.1202 55.68 10.1602 57.24 10.1602 58.76C10.1602 60.28 11.1202 61.84 13.3202 61.84Z" fill="white"/>
<path d="M41.0014 31.1599L50.7614 23.5999H45.4814C37.4814 23.1199 34.4814 18.3999 34.4814 13.3999C34.4814 8.43993 37.4014 2.67993 46.6014 2.67993H57.3214C66.5214 2.67993 69.4414 8.43993 69.4414 13.3999C69.4414 16.3199 68.3614 19.2799 65.6414 21.3199L53.0814 31.1599H41.0014ZM46.6014 16.4799H57.3214C59.5214 16.4799 60.4814 14.9199 60.4814 13.3999C60.4814 11.8799 59.5214 10.3199 57.3214 10.3199H46.6014C44.4014 10.3199 43.4414 11.8799 43.4414 13.3999C43.4414 14.9199 44.4014 16.4799 46.6014 16.4799Z" fill="white"/>
<path d="M22.48 3H31.28V31H22.48V10.68L2 12.28V4.6L22.48 3Z" fill="white"/>
</svg>
