<svg width="72" height="72" viewBox="0 0 72 72" fill="none" xmlns="http://www.w3.org/2000/svg">
<path d="M39.7514 69.1599L49.5114 61.5999H44.2314C36.2314 61.1199 33.2314 56.3999 33.2314 51.3999C33.2314 46.4399 36.1514 40.6799 45.3514 40.6799H56.0714C65.2714 40.6799 68.1914 46.4399 68.1914 51.3999C68.1914 54.3199 67.1114 57.2799 64.3914 59.3199L51.8314 69.1599H39.7514ZM45.3514 54.4799H56.0714C58.2714 54.4799 59.2314 52.9199 59.2314 51.3999C59.2314 49.8799 58.2714 48.3199 56.0714 48.3199H45.3514C43.1514 48.3199 42.1914 49.8799 42.1914 51.3999C42.1914 52.9199 43.1514 54.4799 45.3514 54.4799Z" fill="white"/>
<path d="M13.3202 69.48C4.1202 69.48 1.2002 63.72 1.2002 58.76C1.2002 56.16 2.0402 53.44 4.2002 51.48L14.8802 41H26.2802L18.3202 48.64L20.9602 48.68C27.7602 49.6 30.8402 53.76 30.8402 58.76C30.8402 63.72 27.9202 69.48 18.7202 69.48H13.3202ZM13.3202 61.84H18.7202C20.9202 61.84 21.8802 60.28 21.8802 58.76C21.8802 57.24 20.9202 55.68 18.7202 55.68H13.3202C11.1202 55.68 10.1602 57.24 10.1602 58.76C10.1602 60.28 11.1202 61.84 13.3202 61.84Z" fill="white"/>
<path d="M41.0014 31.1599L50.7614 23.5999H45.4814C37.4814 23.1199 34.4814 18.3999 34.4814 13.3999C34.4814 8.43993 37.4014 2.67993 46.6014 2.67993H57.3214C66.5214 2.67993 69.4414 8.43993 69.4414 13.3999C69.4414 16.3199 68.3614 19.2799 65.6414 21.3199L53.0814 31.1599H41.0014ZM46.6014 16.4799H57.3214C59.5214 16.4799 60.4814 14.9199 60.4814 13.3999C60.4814 11.8799 59.5214 10.3199 57.3214 10.3199H46.6014C44.4014 10.3199 43.4414 11.8799 43.4414 13.3999C43.4414 14.9199 44.4014 16.4799 46.6014 16.4799Z" fill="white"/>
<path d="M22.48 3H31.28V31H22.48V10.68L2 12.28V4.6L22.48 3Z" fill="white"/>
</svg>
