<svg width="72" height="72" viewBox="0 0 72 72" fill="none" xmlns="http://www.w3.org/2000/svg">
<path d="M49.3625 69.48C40.2825 69.48 34.5625 63.2 34.5625 55C34.5625 46.84 40.2825 40.52 49.3625 40.52H54.7625C63.8425 40.52 69.5625 46.84 69.5625 55C69.5625 63.2 63.8425 69.48 54.7625 69.48H49.3625ZM49.3625 61H54.7625C58.3625 61 60.6025 58.6 60.6025 55C60.6025 51.44 58.3625 49 54.7625 49H49.3625C45.7625 49 43.5225 51.44 43.5225 55C43.5225 58.6 45.7625 61 49.3625 61Z" fill="white"/>
<path d="M2 41H34.56V48.68L17.04 69.04L5.2 69L22.8 48.68H2V41Z" fill="white"/>
<path d="M41.0014 31.1599L50.7614 23.5999H45.4814C37.4814 23.1199 34.4814 18.3999 34.4814 13.3999C34.4814 8.43993 37.4014 2.67993 46.6014 2.67993H57.3214C66.5214 2.67993 69.4414 8.43993 69.4414 13.3999C69.4414 16.3199 68.3614 19.2799 65.6414 21.3199L53.0814 31.1599H41.0014ZM46.6014 16.4799H57.3214C59.5214 16.4799 60.4814 14.9199 60.4814 13.3999C60.4814 11.8799 59.5214 10.3199 57.3214 10.3199H46.6014C44.4014 10.3199 43.4414 11.8799 43.4414 13.3999C43.4414 14.9199 44.4014 16.4799 46.6014 16.4799Z" fill="white"/>
<path d="M22.48 3H31.28V31H22.48V10.68L2 12.28V4.6L22.48 3Z" fill="white"/>
</svg>
