<svg width="72" height="72" viewBox="0 0 72 72" fill="none" xmlns="http://www.w3.org/2000/svg">
<path d="M32.811 69V61.68C32.811 56.64 35.891 53.92 41.651 53.28L57.531 52.12C58.891 51.96 59.891 51.24 59.891 50.16C59.891 49.08 59.131 48.16 56.691 48.16H45.731C43.251 48.16 42.331 49.32 42.251 50.64H33.411C33.411 47.92 34.811 40.52 45.731 40.52H56.691C65.451 40.52 68.851 45.16 68.851 50.08C68.851 55.04 66.091 57.88 59.891 58.64L43.291 60.04C41.851 60.2 41.411 60.92 41.411 61.68H68.451V69H32.811Z" fill="white"/>
<path d="M2 41H29.2V48.68L15.68 69.04L4.76 69L18.36 48.68H2V41Z" fill="white"/>
<path d="M41.0014 31.1599L50.7614 23.5999H45.4814C37.4814 23.1199 34.4814 18.3999 34.4814 13.3999C34.4814 8.43993 37.4014 2.67993 46.6014 2.67993H57.3214C66.5214 2.67993 69.4414 8.43993 69.4414 13.3999C69.4414 16.3199 68.3614 19.2799 65.6414 21.3199L53.0814 31.1599H41.0014ZM46.6014 16.4799H57.3214C59.5214 16.4799 60.4814 14.9199 60.4814 13.3999C60.4814 11.8799 59.5214 10.3199 57.3214 10.3199H46.6014C44.4014 10.3199 43.4414 11.8799 43.4414 13.3999C43.4414 14.9199 44.4014 16.4799 46.6014 16.4799Z" fill="white"/>
<path d="M22.48 3H31.28V31H22.48V10.68L2 12.28V4.6L22.48 3Z" fill="white"/>
</svg>
