<svg width="72" height="72" viewBox="0 0 72 72" fill="none" xmlns="http://www.w3.org/2000/svg">
<path d="M45.131 69.48C34.211 69.48 32.811 62.08 32.811 59.36H40.851C40.931 60.68 41.851 61.84 45.131 61.84H55.851C58.251 61.84 59.291 60.92 59.291 59.84C59.291 58.72 58.251 58.12 56.491 58.12H42.011V51.92H55.691C57.451 51.92 58.491 51.32 58.491 50.16C58.491 49.12 57.611 48.2 55.371 48.16H44.491C42.011 48.16 41.091 49.36 41.091 50.64H33.051C33.051 45.68 35.811 40.52 44.691 40.52H55.411C64.611 40.52 67.451 44.88 67.451 49.16C67.451 51.2 66.651 53.08 64.691 54.36C66.851 55.48 68.251 57.36 68.251 60.2C68.251 65.12 64.851 69.48 55.851 69.48H45.131Z" fill="white"/>
<path d="M2 41H29.2V48.68L15.68 69.04L4.76 69L18.36 48.68H2V41Z" fill="white"/>
<path d="M41.0014 31.1599L50.7614 23.5999H45.4814C37.4814 23.1199 34.4814 18.3999 34.4814 13.3999C34.4814 8.43993 37.4014 2.67993 46.6014 2.67993H57.3214C66.5214 2.67993 69.4414 8.43993 69.4414 13.3999C69.4414 16.3199 68.3614 19.2799 65.6414 21.3199L53.0814 31.1599H41.0014ZM46.6014 16.4799H57.3214C59.5214 16.4799 60.4814 14.9199 60.4814 13.3999C60.4814 11.8799 59.5214 10.3199 57.3214 10.3199H46.6014C44.4014 10.3199 43.4414 11.8799 43.4414 13.3999C43.4414 14.9199 44.4014 16.4799 46.6014 16.4799Z" fill="white"/>
<path d="M22.48 3H31.28V31H22.48V10.68L2 12.28V4.6L22.48 3Z" fill="white"/>
</svg>
