<svg width="72" height="72" viewBox="0 0 72 72" fill="none" xmlns="http://www.w3.org/2000/svg">
<path d="M44.5311 69.48C35.3311 69.48 32.4111 63.72 32.4111 58.76C32.4111 55.84 33.4111 52.8 36.2111 50.84L48.7311 41H60.8511L51.2911 48.56H56.3311C64.3311 49.04 67.3711 53.76 67.3711 58.76C67.3711 63.72 64.4511 69.48 55.2511 69.48H44.5311ZM44.5311 61.84H55.2511C57.4511 61.84 58.4111 60.28 58.4111 58.76C58.4111 57.24 57.4511 55.68 55.2511 55.68H44.5311C42.3311 55.68 41.3711 57.24 41.3711 58.76C41.3711 60.28 42.3311 61.84 44.5311 61.84Z" fill="white"/>
<path d="M2 41H29.2V48.68L15.68 69.04L4.76 69L18.36 48.68H2V41Z" fill="white"/>
<path d="M41.0014 31.1599L50.7614 23.5999H45.4814C37.4814 23.1199 34.4814 18.3999 34.4814 13.3999C34.4814 8.43993 37.4014 2.67993 46.6014 2.67993H57.3214C66.5214 2.67993 69.4414 8.43993 69.4414 13.3999C69.4414 16.3199 68.3614 19.2799 65.6414 21.3199L53.0814 31.1599H41.0014ZM46.6014 16.4799H57.3214C59.5214 16.4799 60.4814 14.9199 60.4814 13.3999C60.4814 11.8799 59.5214 10.3199 57.3214 10.3199H46.6014C44.4014 10.3199 43.4414 11.8799 43.4414 13.3999C43.4414 14.9199 44.4014 16.4799 46.6014 16.4799Z" fill="white"/>
<path d="M22.48 3H31.28V31H22.48V10.68L2 12.28V4.6L22.48 3Z" fill="white"/>
</svg>
