<svg width="72" height="72" viewBox="0 0 72 72" fill="none" xmlns="http://www.w3.org/2000/svg">
<path d="M63.4507 54.56C65.8907 55.64 67.6107 57.84 67.6107 61.08C67.6107 65.64 64.5707 69.48 55.1707 69.48H44.4507C35.0507 69.48 32.0107 65.64 32.0107 61.08C32.0107 57.84 33.7307 55.64 36.1707 54.56C34.2907 53.64 32.5707 51.56 32.5707 48.72C32.5707 43.92 36.2107 40.52 44.4507 40.52H55.1707C63.4107 40.52 67.0507 43.92 67.0507 48.72C67.0507 51.56 65.3307 53.64 63.4507 54.56ZM44.4507 47.32C42.4107 47.32 41.1707 48.16 41.1707 49.68C41.1707 51.2 42.4107 52.04 44.4507 52.04H55.1707C57.2107 52.04 58.4507 51.2 58.4507 49.68C58.4507 48.16 57.2107 47.32 55.1707 47.32H44.4507ZM55.1707 62.64C57.3707 62.64 58.6107 61.8 58.6107 60.28C58.6107 58.76 57.3707 57.96 55.1707 57.96H44.4507C42.2507 57.96 41.0107 58.76 41.0107 60.28C41.0107 61.8 42.2507 62.64 44.4507 62.64H55.1707Z" fill="white"/>
<path d="M2 41H29.2V48.68L15.68 69.04L4.76 69L18.36 48.68H2V41Z" fill="white"/>
<path d="M41.0014 31.1599L50.7614 23.5999H45.4814C37.4814 23.1199 34.4814 18.3999 34.4814 13.3999C34.4814 8.43993 37.4014 2.67993 46.6014 2.67993H57.3214C66.5214 2.67993 69.4414 8.43993 69.4414 13.3999C69.4414 16.3199 68.3614 19.2799 65.6414 21.3199L53.0814 31.1599H41.0014ZM46.6014 16.4799H57.3214C59.5214 16.4799 60.4814 14.9199 60.4814 13.3999C60.4814 11.8799 59.5214 10.3199 57.3214 10.3199H46.6014C44.4014 10.3199 43.4414 11.8799 43.4414 13.3999C43.4414 14.9199 44.4014 16.4799 46.6014 16.4799Z" fill="white"/>
<path d="M22.48 3H31.28V31H22.48V10.68L2 12.28V4.6L22.48 3Z" fill="white"/>
</svg>
