<svg width="72" height="72" viewBox="0 0 72 72" fill="none" xmlns="http://www.w3.org/2000/svg">
<path d="M38.9311 69.1599L48.6911 61.5999H43.4111C35.4111 61.1199 32.4111 56.3999 32.4111 51.3999C32.4111 46.4399 35.3311 40.6799 44.5311 40.6799H55.2511C64.4511 40.6799 67.3711 46.4399 67.3711 51.3999C67.3711 54.3199 66.2911 57.2799 63.5711 59.3199L51.0111 69.1599H38.9311ZM44.5311 54.4799H55.2511C57.4511 54.4799 58.4111 52.9199 58.4111 51.3999C58.4111 49.8799 57.4511 48.3199 55.2511 48.3199H44.5311C42.3311 48.3199 41.3711 49.8799 41.3711 51.3999C41.3711 52.9199 42.3311 54.4799 44.5311 54.4799Z" fill="white"/>
<path d="M2 41H29.2V48.68L15.68 69.04L4.76 69L18.36 48.68H2V41Z" fill="white"/>
<path d="M41.0014 31.1599L50.7614 23.5999H45.4814C37.4814 23.1199 34.4814 18.3999 34.4814 13.3999C34.4814 8.43993 37.4014 2.67993 46.6014 2.67993H57.3214C66.5214 2.67993 69.4414 8.43993 69.4414 13.3999C69.4414 16.3199 68.3614 19.2799 65.6414 21.3199L53.0814 31.1599H41.0014ZM46.6014 16.4799H57.3214C59.5214 16.4799 60.4814 14.9199 60.4814 13.3999C60.4814 11.8799 59.5214 10.3199 57.3214 10.3199H46.6014C44.4014 10.3199 43.4414 11.8799 43.4414 13.3999C43.4414 14.9199 44.4014 16.4799 46.6014 16.4799Z" fill="white"/>
<path d="M22.48 3H31.28V31H22.48V10.68L2 12.28V4.6L22.48 3Z" fill="white"/>
</svg>
