<svg width="72" height="72" viewBox="0 0 72 72" fill="none" xmlns="http://www.w3.org/2000/svg">
<path d="M33.8955 69V61.68C33.8955 56.64 36.9755 53.92 42.7355 53.28L58.6155 52.12C59.9755 51.96 60.9755 51.24 60.9755 50.16C60.9755 49.08 60.2155 48.16 57.7755 48.16H46.8155C44.3355 48.16 43.4155 49.32 43.3355 50.64H34.4955C34.4955 47.92 35.8955 40.52 46.8155 40.52H57.7755C66.5355 40.52 69.9355 45.16 69.9355 50.08C69.9355 55.04 67.1755 57.88 60.9755 58.64L44.3755 60.04C42.9355 60.2 42.4955 60.92 42.4955 61.68H69.5355V69H33.8955Z" fill="white"/>
<path d="M27.3202 54.56C29.7602 55.64 31.4802 57.84 31.4802 61.08C31.4802 65.64 28.4402 69.48 19.0402 69.48H13.6402C4.2402 69.48 1.2002 65.64 1.2002 61.08C1.2002 57.84 2.9202 55.64 5.3602 54.56C3.4802 53.64 1.7602 51.56 1.7602 48.72C1.7602 43.92 5.4002 40.52 13.6402 40.52H19.0402C27.2802 40.52 30.9202 43.92 30.9202 48.72C30.9202 51.56 29.2002 53.64 27.3202 54.56ZM13.6402 47.32C11.6002 47.32 10.3602 48.16 10.3602 49.68C10.3602 51.2 11.6002 52.04 13.6402 52.04H19.0402C21.0802 52.04 22.3202 51.2 22.3202 49.68C22.3202 48.16 21.0802 47.32 19.0402 47.32H13.6402ZM19.0402 62.64C21.2402 62.64 22.4802 61.8 22.4802 60.28C22.4802 58.76 21.2402 57.96 19.0402 57.96H13.6402C11.4402 57.96 10.2002 58.76 10.2002 60.28C10.2002 61.8 11.4402 62.64 13.6402 62.64H19.0402Z" fill="white"/>
<path d="M41.0014 31.1599L50.7614 23.5999H45.4814C37.4814 23.1199 34.4814 18.3999 34.4814 13.3999C34.4814 8.43993 37.4014 2.67993 46.6014 2.67993H57.3214C66.5214 2.67993 69.4414 8.43993 69.4414 13.3999C69.4414 16.3199 68.3614 19.2799 65.6414 21.3199L53.0814 31.1599H41.0014ZM46.6014 16.4799H57.3214C59.5214 16.4799 60.4814 14.9199 60.4814 13.3999C60.4814 11.8799 59.5214 10.3199 57.3214 10.3199H46.6014C44.4014 10.3199 43.4414 11.8799 43.4414 13.3999C43.4414 14.9199 44.4014 16.4799 46.6014 16.4799Z" fill="white"/>
<path d="M22.48 3H31.28V31H22.48V10.68L2 12.28V4.6L22.48 3Z" fill="white"/>
</svg>
