<svg width="72" height="72" viewBox="0 0 72 72" fill="none" xmlns="http://www.w3.org/2000/svg">
<path d="M46.6154 69.48C35.6954 69.48 34.2954 62.08 34.2954 59.36H42.3354C42.4154 60.68 43.3354 61.84 46.6154 61.84H57.3354C59.7354 61.84 60.7754 60.92 60.7754 59.84C60.7754 58.72 59.7354 58.12 57.9754 58.12H43.4954V51.92H57.1754C58.9354 51.92 59.9754 51.32 59.9754 50.16C59.9754 49.12 59.0954 48.2 56.8554 48.16H45.9754C43.4954 48.16 42.5754 49.36 42.5754 50.64H34.5354C34.5354 45.68 37.2954 40.52 46.1754 40.52H56.8954C66.0954 40.52 68.9354 44.88 68.9354 49.16C68.9354 51.2 68.1354 53.08 66.1754 54.36C68.3354 55.48 69.7354 57.36 69.7354 60.2C69.7354 65.12 66.3354 69.48 57.3354 69.48H46.6154Z" fill="white"/>
<path d="M27.3202 54.56C29.7602 55.64 31.4802 57.84 31.4802 61.08C31.4802 65.64 28.4402 69.48 19.0402 69.48H13.6402C4.2402 69.48 1.2002 65.64 1.2002 61.08C1.2002 57.84 2.9202 55.64 5.3602 54.56C3.4802 53.64 1.7602 51.56 1.7602 48.72C1.7602 43.92 5.4002 40.52 13.6402 40.52H19.0402C27.2802 40.52 30.9202 43.92 30.9202 48.72C30.9202 51.56 29.2002 53.64 27.3202 54.56ZM13.6402 47.32C11.6002 47.32 10.3602 48.16 10.3602 49.68C10.3602 51.2 11.6002 52.04 13.6402 52.04H19.0402C21.0802 52.04 22.3202 51.2 22.3202 49.68C22.3202 48.16 21.0802 47.32 19.0402 47.32H13.6402ZM19.0402 62.64C21.2402 62.64 22.4802 61.8 22.4802 60.28C22.4802 58.76 21.2402 57.96 19.0402 57.96H13.6402C11.4402 57.96 10.2002 58.76 10.2002 60.28C10.2002 61.8 11.4402 62.64 13.6402 62.64H19.0402Z" fill="white"/>
<path d="M41.0014 31.1599L50.7614 23.5999H45.4814C37.4814 23.1199 34.4814 18.3999 34.4814 13.3999C34.4814 8.43993 37.4014 2.67993 46.6014 2.67993H57.3214C66.5214 2.67993 69.4414 8.43993 69.4414 13.3999C69.4414 16.3199 68.3614 19.2799 65.6414 21.3199L53.0814 31.1599H41.0014ZM46.6014 16.4799H57.3214C59.5214 16.4799 60.4814 14.9199 60.4814 13.3999C60.4814 11.8799 59.5214 10.3199 57.3214 10.3199H46.6014C44.4014 10.3199 43.4414 11.8799 43.4414 13.3999C43.4414 14.9199 44.4014 16.4799 46.6014 16.4799Z" fill="white"/>
<path d="M22.48 3H31.28V31H22.48V10.68L2 12.28V4.6L22.48 3Z" fill="white"/>
</svg>
