<svg width="72" height="72" viewBox="0 0 72 72" fill="none" xmlns="http://www.w3.org/2000/svg">
<path d="M69.6877 57.44V64.92H67.1277V69H58.7277V64.88L38.4077 64.84V57.24L44.8077 41H67.1277V57.44H69.6877ZM46.9277 57.44H58.7277V48.72H50.3677L46.9277 57.44Z" fill="white"/>
<path d="M32.6402 54.56C35.0802 55.64 36.8002 57.84 36.8002 61.08C36.8002 65.64 33.7602 69.48 24.3602 69.48H13.6402C4.2402 69.48 1.2002 65.64 1.2002 61.08C1.2002 57.84 2.9202 55.64 5.3602 54.56C3.4802 53.64 1.7602 51.56 1.7602 48.72C1.7602 43.92 5.4002 40.52 13.6402 40.52H24.3602C32.6002 40.52 36.2402 43.92 36.2402 48.72C36.2402 51.56 34.5202 53.64 32.6402 54.56ZM13.6402 47.32C11.6002 47.32 10.3602 48.16 10.3602 49.68C10.3602 51.2 11.6002 52.04 13.6402 52.04H24.3602C26.4002 52.04 27.6402 51.2 27.6402 49.68C27.6402 48.16 26.4002 47.32 24.3602 47.32H13.6402ZM24.3602 62.64C26.5602 62.64 27.8002 61.8 27.8002 60.28C27.8002 58.76 26.5602 57.96 24.3602 57.96H13.6402C11.4402 57.96 10.2002 58.76 10.2002 60.28C10.2002 61.8 11.4402 62.64 13.6402 62.64H24.3602Z" fill="white"/>
<path d="M41.0014 31.1599L50.7614 23.5999H45.4814C37.4814 23.1199 34.4814 18.3999 34.4814 13.3999C34.4814 8.43993 37.4014 2.67993 46.6014 2.67993H57.3214C66.5214 2.67993 69.4414 8.43993 69.4414 13.3999C69.4414 16.3199 68.3614 19.2799 65.6414 21.3199L53.0814 31.1599H41.0014ZM46.6014 16.4799H57.3214C59.5214 16.4799 60.4814 14.9199 60.4814 13.3999C60.4814 11.8799 59.5214 10.3199 57.3214 10.3199H46.6014C44.4014 10.3199 43.4414 11.8799 43.4414 13.3999C43.4414 14.9199 44.4014 16.4799 46.6014 16.4799Z" fill="white"/>
<path d="M22.48 3H31.28V31H22.48V10.68L2 12.28V4.6L22.48 3Z" fill="white"/>
</svg>
