<svg width="72" height="72" viewBox="0 0 72 72" fill="none" xmlns="http://www.w3.org/2000/svg">
<path d="M59.0164 41H67.8164V69H59.0164V48.68L43.8564 50.28V42.6L59.0164 41Z" fill="white"/>
<path d="M9.6802 69L21.1202 61.56H13.3202C4.1202 61.56 1.2002 56.2 1.2002 51.24C1.2002 46.28 4.1202 40.52 13.3202 40.52H29.3202C38.5202 40.52 41.4402 46.28 41.4402 51.24C41.4402 54.44 40.1602 57.72 36.8802 59.8L22.4402 69H9.6802ZM13.3202 54.32H29.3202C31.5202 54.32 32.4802 52.76 32.4802 51.24C32.4802 49.72 31.5202 48.16 29.3202 48.16H13.3202C11.1202 48.16 10.1602 49.72 10.1602 51.24C10.1602 52.76 11.1202 54.32 13.3202 54.32Z" fill="white"/>
<path d="M41.0014 31.1599L50.7614 23.5999H45.4814C37.4814 23.1199 34.4814 18.3999 34.4814 13.3999C34.4814 8.43993 37.4014 2.67993 46.6014 2.67993H57.3214C66.5214 2.67993 69.4414 8.43993 69.4414 13.3999C69.4414 16.3199 68.3614 19.2799 65.6414 21.3199L53.0814 31.1599H41.0014ZM46.6014 16.4799H57.3214C59.5214 16.4799 60.4814 14.9199 60.4814 13.3999C60.4814 11.8799 59.5214 10.3199 57.3214 10.3199H46.6014C44.4014 10.3199 43.4414 11.8799 43.4414 13.3999C43.4414 14.9199 44.4014 16.4799 46.6014 16.4799Z" fill="white"/>
<path d="M22.48 3H31.28V31H22.48V10.68L2 12.28V4.6L22.48 3Z" fill="white"/>
</svg>
