<svg width="72" height="72" viewBox="0 0 72 72" fill="none" xmlns="http://www.w3.org/2000/svg">
<path d="M33.2314 69V61.68C33.2314 56.64 36.3114 53.92 42.0714 53.28L57.9514 52.12C59.3114 51.96 60.3114 51.24 60.3114 50.16C60.3114 49.08 59.5514 48.16 57.1114 48.16H46.1514C43.6714 48.16 42.7514 49.32 42.6714 50.64H33.8314C33.8314 47.92 35.2314 40.52 46.1514 40.52H57.1114C65.8714 40.52 69.2715 45.16 69.2715 50.08C69.2715 55.04 66.5114 57.88 60.3114 58.64L43.7114 60.04C42.2714 60.2 41.8314 60.92 41.8314 61.68H68.8714V69H33.2314Z" fill="white"/>
<path d="M5.7602 69.3201L13.8002 61.6801L11.1202 61.6401C4.3202 60.7201 1.2002 56.5601 1.2002 51.5601C1.2002 46.6001 4.1202 40.8401 13.3202 40.8401H18.7202C27.9202 40.8401 30.8402 46.6001 30.8402 51.5601C30.8402 54.1601 30.0002 56.8801 27.8402 58.8401L17.2002 69.3201H5.7602ZM13.3202 54.6401H18.7202C20.9202 54.6401 21.8802 53.0801 21.8802 51.5601C21.8802 50.0401 20.9202 48.4801 18.7202 48.4801H13.3202C11.1202 48.4801 10.1602 50.0401 10.1602 51.5601C10.1602 53.0801 11.1202 54.6401 13.3202 54.6401Z" fill="white"/>
<path d="M41.0014 31.1599L50.7614 23.5999H45.4814C37.4814 23.1199 34.4814 18.3999 34.4814 13.3999C34.4814 8.43993 37.4014 2.67993 46.6014 2.67993H57.3214C66.5214 2.67993 69.4414 8.43993 69.4414 13.3999C69.4414 16.3199 68.3614 19.2799 65.6414 21.3199L53.0814 31.1599H41.0014ZM46.6014 16.4799H57.3214C59.5214 16.4799 60.4814 14.9199 60.4814 13.3999C60.4814 11.8799 59.5214 10.3199 57.3214 10.3199H46.6014C44.4014 10.3199 43.4414 11.8799 43.4414 13.3999C43.4414 14.9199 44.4014 16.4799 46.6014 16.4799Z" fill="white"/>
<path d="M22.48 3H31.28V31H22.48V10.68L2 12.28V4.6L22.48 3Z" fill="white"/>
</svg>
