<svg width="72" height="72" viewBox="0 0 72 72" fill="none" xmlns="http://www.w3.org/2000/svg">
<path d="M45.9513 69.48C35.0313 69.48 33.6313 62.08 33.6313 59.36H41.6713C41.7513 60.68 42.6713 61.84 45.9513 61.84H56.6713C59.0713 61.84 60.1113 60.92 60.1113 59.84C60.1113 58.72 59.0714 58.12 57.3113 58.12H42.8313V51.92H56.5113C58.2713 51.92 59.3113 51.32 59.3113 50.16C59.3113 49.12 58.4313 48.2 56.1913 48.16H45.3113C42.8313 48.16 41.9113 49.36 41.9113 50.64H33.8713C33.8713 45.68 36.6313 40.52 45.5113 40.52H56.2313C65.4313 40.52 68.2714 44.88 68.2714 49.16C68.2714 51.2 67.4713 53.08 65.5113 54.36C67.6713 55.48 69.0713 57.36 69.0713 60.2C69.0713 65.12 65.6713 69.48 56.6713 69.48H45.9513Z" fill="white"/>
<path d="M5.7602 69.3201L13.8002 61.6801L11.1202 61.6401C4.3202 60.7201 1.2002 56.5601 1.2002 51.5601C1.2002 46.6001 4.1202 40.8401 13.3202 40.8401H18.7202C27.9202 40.8401 30.8402 46.6001 30.8402 51.5601C30.8402 54.1601 30.0002 56.8801 27.8402 58.8401L17.2002 69.3201H5.7602ZM13.3202 54.6401H18.7202C20.9202 54.6401 21.8802 53.0801 21.8802 51.5601C21.8802 50.0401 20.9202 48.4801 18.7202 48.4801H13.3202C11.1202 48.4801 10.1602 50.0401 10.1602 51.5601C10.1602 53.0801 11.1202 54.6401 13.3202 54.6401Z" fill="white"/>
<path d="M41.0014 31.1599L50.7614 23.5999H45.4814C37.4814 23.1199 34.4814 18.3999 34.4814 13.3999C34.4814 8.43993 37.4014 2.67993 46.6014 2.67993H57.3214C66.5214 2.67993 69.4414 8.43993 69.4414 13.3999C69.4414 16.3199 68.3614 19.2799 65.6414 21.3199L53.0814 31.1599H41.0014ZM46.6014 16.4799H57.3214C59.5214 16.4799 60.4814 14.9199 60.4814 13.3999C60.4814 11.8799 59.5214 10.3199 57.3214 10.3199H46.6014C44.4014 10.3199 43.4414 11.8799 43.4414 13.3999C43.4414 14.9199 44.4014 16.4799 46.6014 16.4799Z" fill="white"/>
<path d="M22.48 3H31.28V31H22.48V10.68L2 12.28V4.6L22.48 3Z" fill="white"/>
</svg>
