<svg width="72" height="72" viewBox="0 0 72 72" fill="none" xmlns="http://www.w3.org/2000/svg">
<path d="M69.0237 57.44V64.92H66.4637V69H58.0637V64.88L37.7437 64.84V57.24L44.1437 41H66.4637V57.44H69.0237ZM46.2637 57.44H58.0637V48.72H49.7037L46.2637 57.44Z" fill="white"/>
<path d="M7.7202 69.1599L17.4802 61.5999H12.2002C4.2002 61.1199 1.2002 56.3999 1.2002 51.3999C1.2002 46.4399 4.1202 40.6799 13.3202 40.6799H24.0402C33.2402 40.6799 36.1602 46.4399 36.1602 51.3999C36.1602 54.3199 35.0802 57.2799 32.3602 59.3199L19.8002 69.1599H7.7202ZM13.3202 54.4799H24.0402C26.2402 54.4799 27.2002 52.9199 27.2002 51.3999C27.2002 49.8799 26.2402 48.3199 24.0402 48.3199H13.3202C11.1202 48.3199 10.1602 49.8799 10.1602 51.3999C10.1602 52.9199 11.1202 54.4799 13.3202 54.4799Z" fill="white"/>
<path d="M41.0014 31.1599L50.7614 23.5999H45.4814C37.4814 23.1199 34.4814 18.3999 34.4814 13.3999C34.4814 8.43993 37.4014 2.67993 46.6014 2.67993H57.3214C66.5214 2.67993 69.4414 8.43993 69.4414 13.3999C69.4414 16.3199 68.3614 19.2799 65.6414 21.3199L53.0814 31.1599H41.0014ZM46.6014 16.4799H57.3214C59.5214 16.4799 60.4814 14.9199 60.4814 13.3999C60.4814 11.8799 59.5214 10.3199 57.3214 10.3199H46.6014C44.4014 10.3199 43.4414 11.8799 43.4414 13.3999C43.4414 14.9199 44.4014 16.4799 46.6014 16.4799Z" fill="white"/>
<path d="M22.48 3H31.28V31H22.48V10.68L2 12.28V4.6L22.48 3Z" fill="white"/>
</svg>
