<svg width="72" height="72" viewBox="0 0 72 72" fill="none" xmlns="http://www.w3.org/2000/svg">
<path d="M45.3514 69.48C36.1514 69.48 33.2314 63.72 33.2314 58.76C33.2314 55.84 34.2314 52.8 37.0314 50.84L49.5514 41H61.6714L52.1114 48.56H57.1514C65.1514 49.04 68.1914 53.76 68.1914 58.76C68.1914 63.72 65.2714 69.48 56.0714 69.48H45.3514ZM45.3514 61.84H56.0714C58.2714 61.84 59.2314 60.28 59.2314 58.76C59.2314 57.24 58.2714 55.68 56.0714 55.68H45.3514C43.1514 55.68 42.1914 57.24 42.1914 58.76C42.1914 60.28 43.1514 61.84 45.3514 61.84Z" fill="white"/>
<path d="M5.7602 69.3201L13.8002 61.6801L11.1202 61.6401C4.3202 60.7201 1.2002 56.5601 1.2002 51.5601C1.2002 46.6001 4.1202 40.8401 13.3202 40.8401H18.7202C27.9202 40.8401 30.8402 46.6001 30.8402 51.5601C30.8402 54.1601 30.0002 56.8801 27.8402 58.8401L17.2002 69.3201H5.7602ZM13.3202 54.6401H18.7202C20.9202 54.6401 21.8802 53.0801 21.8802 51.5601C21.8802 50.0401 20.9202 48.4801 18.7202 48.4801H13.3202C11.1202 48.4801 10.1602 50.0401 10.1602 51.5601C10.1602 53.0801 11.1202 54.6401 13.3202 54.6401Z" fill="white"/>
<path d="M41.0014 31.1599L50.7614 23.5999H45.4814C37.4814 23.1199 34.4814 18.3999 34.4814 13.3999C34.4814 8.43993 37.4014 2.67993 46.6014 2.67993H57.3214C66.5214 2.67993 69.4414 8.43993 69.4414 13.3999C69.4414 16.3199 68.3614 19.2799 65.6414 21.3199L53.0814 31.1599H41.0014ZM46.6014 16.4799H57.3214C59.5214 16.4799 60.4814 14.9199 60.4814 13.3999C60.4814 11.8799 59.5214 10.3199 57.3214 10.3199H46.6014C44.4014 10.3199 43.4414 11.8799 43.4414 13.3999C43.4414 14.9199 44.4014 16.4799 46.6014 16.4799Z" fill="white"/>
<path d="M22.48 3H31.28V31H22.48V10.68L2 12.28V4.6L22.48 3Z" fill="white"/>
</svg>
