<svg width="72" height="72" viewBox="0 0 72 72" fill="none" xmlns="http://www.w3.org/2000/svg">
<path d="M64.2711 54.56C66.7111 55.64 68.4311 57.84 68.4311 61.08C68.4311 65.64 65.3911 69.48 55.9911 69.48H45.2711C35.8711 69.48 32.8311 65.64 32.8311 61.08C32.8311 57.84 34.5511 55.64 36.9911 54.56C35.1111 53.64 33.3911 51.56 33.3911 48.72C33.3911 43.92 37.0311 40.52 45.2711 40.52H55.9911C64.2311 40.52 67.8711 43.92 67.8711 48.72C67.8711 51.56 66.1511 53.64 64.2711 54.56ZM45.2711 47.32C43.2311 47.32 41.9911 48.16 41.9911 49.68C41.9911 51.2 43.2311 52.04 45.2711 52.04H55.9911C58.0311 52.04 59.2711 51.2 59.2711 49.68C59.2711 48.16 58.0311 47.32 55.9911 47.32H45.2711ZM55.9911 62.64C58.1911 62.64 59.4311 61.8 59.4311 60.28C59.4311 58.76 58.1911 57.96 55.9911 57.96H45.2711C43.0711 57.96 41.8311 58.76 41.8311 60.28C41.8311 61.8 43.0711 62.64 45.2711 62.64H55.9911Z" fill="white"/>
<path d="M5.7602 69.3201L13.8002 61.6801L11.1202 61.6401C4.3202 60.7201 1.2002 56.5601 1.2002 51.5601C1.2002 46.6001 4.1202 40.8401 13.3202 40.8401H18.7202C27.9202 40.8401 30.8402 46.6001 30.8402 51.5601C30.8402 54.1601 30.0002 56.8801 27.8402 58.8401L17.2002 69.3201H5.7602ZM13.3202 54.6401H18.7202C20.9202 54.6401 21.8802 53.0801 21.8802 51.5601C21.8802 50.0401 20.9202 48.4801 18.7202 48.4801H13.3202C11.1202 48.4801 10.1602 50.0401 10.1602 51.5601C10.1602 53.0801 11.1202 54.6401 13.3202 54.6401Z" fill="white"/>
<path d="M41.0014 31.1599L50.7614 23.5999H45.4814C37.4814 23.1199 34.4814 18.3999 34.4814 13.3999C34.4814 8.43993 37.4014 2.67993 46.6014 2.67993H57.3214C66.5214 2.67993 69.4414 8.43993 69.4414 13.3999C69.4414 16.3199 68.3614 19.2799 65.6414 21.3199L53.0814 31.1599H41.0014ZM46.6014 16.4799H57.3214C59.5214 16.4799 60.4814 14.9199 60.4814 13.3999C60.4814 11.8799 59.5214 10.3199 57.3214 10.3199H46.6014C44.4014 10.3199 43.4414 11.8799 43.4414 13.3999C43.4414 14.9199 44.4014 16.4799 46.6014 16.4799Z" fill="white"/>
<path d="M22.48 3H31.28V31H22.48V10.68L2 12.28V4.6L22.48 3Z" fill="white"/>
</svg>
