<svg width="72" height="72" viewBox="0 0 72 72" fill="none" xmlns="http://www.w3.org/2000/svg">
<path d="M59.0946 41H67.8946V69H59.0946V48.68L43.9346 50.28V42.6L59.0946 41Z" fill="white"/>
<path d="M16.0002 69.48C6.9202 69.48 1.2002 63.2 1.2002 55C1.2002 46.84 6.9202 40.52 16.0002 40.52H26.7202C35.8002 40.52 41.5202 46.84 41.5202 55C41.5202 63.2 35.8002 69.48 26.7202 69.48H16.0002ZM16.0002 61H26.7202C30.3202 61 32.5602 58.6 32.5602 55C32.5602 51.44 30.3202 49 26.7202 49H16.0002C12.4002 49 10.1602 51.44 10.1602 55C10.1602 58.6 12.4002 61 16.0002 61Z" fill="white"/>
<path d="M49.9265 31.48C40.8465 31.48 35.1265 25.2 35.1265 17C35.1265 8.84002 40.8465 2.52002 49.9265 2.52002H55.3265C64.4065 2.52002 70.1265 8.84002 70.1265 17C70.1265 25.2 64.4065 31.48 55.3265 31.48H49.9265ZM49.9265 23H55.3265C58.9265 23 61.1665 20.6 61.1665 17C61.1665 13.44 58.9265 11 55.3265 11H49.9265C46.3265 11 44.0865 13.44 44.0865 17C44.0865 20.6 46.3265 23 49.9265 23Z" fill="white"/>
<path d="M2 31V23.68C2 18.64 5.12 16.2 10.84 15.28L21.4 14.12C22.8 13.92 23.76 13.24 23.76 12.16C23.76 11.08 23 10.16 20.44 10.16H14.92C12.44 10.16 11.52 11.32 11.44 12.64H2.6C2.6 9.92002 4 2.52002 14.92 2.52002H20.44C29.28 2.52002 32.72 7.16002 32.72 12.08C32.72 17.04 29.96 19.56 23.76 20.64L12.48 22.04C11.08 22.28 10.6 22.92 10.6 23.68H32.32V31H2Z" fill="white"/>
</svg>
