<svg width="72" height="72" viewBox="0 0 72 72" fill="none" xmlns="http://www.w3.org/2000/svg">
<path d="M33.3096 69V61.68C33.3096 56.64 36.3896 53.92 42.1496 53.28L58.0296 52.12C59.3896 51.96 60.3896 51.24 60.3896 50.16C60.3896 49.08 59.6296 48.16 57.1896 48.16H46.2296C43.7496 48.16 42.8296 49.32 42.7496 50.64H33.9096C33.9096 47.92 35.3096 40.52 46.2296 40.52H57.1896C65.9496 40.52 69.3496 45.16 69.3496 50.08C69.3496 55.04 66.5896 57.88 60.3896 58.64L43.7896 60.04C42.3496 60.2 41.9096 60.92 41.9096 61.68H68.9496V69H33.3096Z" fill="white"/>
<path d="M16.0002 69.48C6.9202 69.48 1.2002 63.2 1.2002 55C1.2002 46.84 6.9202 40.52 16.0002 40.52H16.1202C25.2002 40.52 30.9202 46.84 30.9202 55C30.9202 63.2 25.2002 69.48 16.1202 69.48H16.0002ZM16.0002 61H16.1202C19.7202 61 21.9602 58.6 21.9602 55C21.9602 51.44 19.7202 49 16.1202 49H16.0002C12.4002 49 10.1602 51.44 10.1602 55C10.1602 58.6 12.4002 61 16.0002 61Z" fill="white"/>
<path d="M49.9265 31.48C40.8465 31.48 35.1265 25.2 35.1265 17C35.1265 8.84002 40.8465 2.52002 49.9265 2.52002H55.3265C64.4065 2.52002 70.1265 8.84002 70.1265 17C70.1265 25.2 64.4065 31.48 55.3265 31.48H49.9265ZM49.9265 23H55.3265C58.9265 23 61.1665 20.6 61.1665 17C61.1665 13.44 58.9265 11 55.3265 11H49.9265C46.3265 11 44.0865 13.44 44.0865 17C44.0865 20.6 46.3265 23 49.9265 23Z" fill="white"/>
<path d="M2 31V23.68C2 18.64 5.12 16.2 10.84 15.28L21.4 14.12C22.8 13.92 23.76 13.24 23.76 12.16C23.76 11.08 23 10.16 20.44 10.16H14.92C12.44 10.16 11.52 11.32 11.44 12.64H2.6C2.6 9.92002 4 2.52002 14.92 2.52002H20.44C29.28 2.52002 32.72 7.16002 32.72 12.08C32.72 17.04 29.96 19.56 23.76 20.64L12.48 22.04C11.08 22.28 10.6 22.92 10.6 23.68H32.32V31H2Z" fill="white"/>
</svg>
