<svg width="72" height="72" viewBox="0 0 72 72" fill="none" xmlns="http://www.w3.org/2000/svg">
<path d="M45.6296 69.48C34.7096 69.48 33.3096 62.08 33.3096 59.36H41.3496C41.4296 60.68 42.3496 61.84 45.6296 61.84H56.3496C58.7496 61.84 59.7896 60.92 59.7896 59.84C59.7896 58.72 58.7496 58.12 56.9896 58.12H42.5096V51.92H56.1896C57.9496 51.92 58.9896 51.32 58.9896 50.16C58.9896 49.12 58.1096 48.2 55.8696 48.16H44.9896C42.5096 48.16 41.5896 49.36 41.5896 50.64H33.5496C33.5496 45.68 36.3096 40.52 45.1896 40.52H55.9096C65.1096 40.52 67.9496 44.88 67.9496 49.16C67.9496 51.2 67.1496 53.08 65.1896 54.36C67.3496 55.48 68.7496 57.36 68.7496 60.2C68.7496 65.12 65.3496 69.48 56.3496 69.48H45.6296Z" fill="white"/>
<path d="M16.0002 69.48C6.9202 69.48 1.2002 63.2 1.2002 55C1.2002 46.84 6.9202 40.52 16.0002 40.52H16.1202C25.2002 40.52 30.9202 46.84 30.9202 55C30.9202 63.2 25.2002 69.48 16.1202 69.48H16.0002ZM16.0002 61H16.1202C19.7202 61 21.9602 58.6 21.9602 55C21.9602 51.44 19.7202 49 16.1202 49H16.0002C12.4002 49 10.1602 51.44 10.1602 55C10.1602 58.6 12.4002 61 16.0002 61Z" fill="white"/>
<path d="M49.9265 31.48C40.8465 31.48 35.1265 25.2 35.1265 17C35.1265 8.84002 40.8465 2.52002 49.9265 2.52002H55.3265C64.4065 2.52002 70.1265 8.84002 70.1265 17C70.1265 25.2 64.4065 31.48 55.3265 31.48H49.9265ZM49.9265 23H55.3265C58.9265 23 61.1665 20.6 61.1665 17C61.1665 13.44 58.9265 11 55.3265 11H49.9265C46.3265 11 44.0865 13.44 44.0865 17C44.0865 20.6 46.3265 23 49.9265 23Z" fill="white"/>
<path d="M2 31V23.68C2 18.64 5.12 16.2 10.84 15.28L21.4 14.12C22.8 13.92 23.76 13.24 23.76 12.16C23.76 11.08 23 10.16 20.44 10.16H14.92C12.44 10.16 11.52 11.32 11.44 12.64H2.6C2.6 9.92002 4 2.52002 14.92 2.52002H20.44C29.28 2.52002 32.72 7.16002 32.72 12.08C32.72 17.04 29.96 19.56 23.76 20.64L12.48 22.04C11.08 22.28 10.6 22.92 10.6 23.68H32.32V31H2Z" fill="white"/>
</svg>
