<svg width="72" height="72" viewBox="0 0 72 72" fill="none" xmlns="http://www.w3.org/2000/svg">
<path d="M46.2294 69.48C37.0294 69.48 34.1094 63.72 34.1094 58.76C34.1094 55.84 35.1094 52.8 37.9094 50.84L50.4294 41H62.5494L52.9894 48.56H58.0294C66.0294 49.04 69.0694 53.76 69.0694 58.76C69.0694 63.72 66.1494 69.48 56.9494 69.48H46.2294ZM46.2294 61.84H56.9494C59.1494 61.84 60.1094 60.28 60.1094 58.76C60.1094 57.24 59.1494 55.68 56.9494 55.68H46.2294C44.0294 55.68 43.0694 57.24 43.0694 58.76C43.0694 60.28 44.0294 61.84 46.2294 61.84Z" fill="white"/>
<path d="M16.0002 69.48C6.9202 69.48 1.2002 63.2 1.2002 55C1.2002 46.84 6.9202 40.52 16.0002 40.52H16.1202C25.2002 40.52 30.9202 46.84 30.9202 55C30.9202 63.2 25.2002 69.48 16.1202 69.48H16.0002ZM16.0002 61H16.1202C19.7202 61 21.9602 58.6 21.9602 55C21.9602 51.44 19.7202 49 16.1202 49H16.0002C12.4002 49 10.1602 51.44 10.1602 55C10.1602 58.6 12.4002 61 16.0002 61Z" fill="white"/>
<path d="M49.9265 31.48C40.8465 31.48 35.1265 25.2 35.1265 17C35.1265 8.84002 40.8465 2.52002 49.9265 2.52002H55.3265C64.4065 2.52002 70.1265 8.84002 70.1265 17C70.1265 25.2 64.4065 31.48 55.3265 31.48H49.9265ZM49.9265 23H55.3265C58.9265 23 61.1665 20.6 61.1665 17C61.1665 13.44 58.9265 11 55.3265 11H49.9265C46.3265 11 44.0865 13.44 44.0865 17C44.0865 20.6 46.3265 23 49.9265 23Z" fill="white"/>
<path d="M2 31V23.68C2 18.64 5.12 16.2 10.84 15.28L21.4 14.12C22.8 13.92 23.76 13.24 23.76 12.16C23.76 11.08 23 10.16 20.44 10.16H14.92C12.44 10.16 11.52 11.32 11.44 12.64H2.6C2.6 9.92002 4 2.52002 14.92 2.52002H20.44C29.28 2.52002 32.72 7.16002 32.72 12.08C32.72 17.04 29.96 19.56 23.76 20.64L12.48 22.04C11.08 22.28 10.6 22.92 10.6 23.68H32.32V31H2Z" fill="white"/>
</svg>
