<svg width="72" height="72" viewBox="0 0 72 72" fill="none" xmlns="http://www.w3.org/2000/svg">
<path d="M39.4172 69.48C30.3372 69.48 24.6172 63.2 24.6172 55C24.6172 46.84 30.3372 40.52 39.4172 40.52H55.4172C64.4972 40.52 70.2172 46.84 70.2172 55C70.2172 63.2 64.4972 69.48 55.4172 69.48H39.4172ZM39.4172 61H55.4172C59.0172 61 61.2572 58.6 61.2572 55C61.2572 51.44 59.0172 49 55.4172 49H39.4172C35.8172 49 33.5772 51.44 33.5772 55C33.5772 58.6 35.8172 61 39.4172 61Z" fill="white"/>
<path d="M11.8 41H20.6V69H11.8V48.68L2 50.28V42.6L11.8 41Z" fill="white"/>
<path d="M49.9265 31.48C40.8465 31.48 35.1265 25.2 35.1265 17C35.1265 8.84002 40.8465 2.52002 49.9265 2.52002H55.3265C64.4065 2.52002 70.1265 8.84002 70.1265 17C70.1265 25.2 64.4065 31.48 55.3265 31.48H49.9265ZM49.9265 23H55.3265C58.9265 23 61.1665 20.6 61.1665 17C61.1665 13.44 58.9265 11 55.3265 11H49.9265C46.3265 11 44.0865 13.44 44.0865 17C44.0865 20.6 46.3265 23 49.9265 23Z" fill="white"/>
<path d="M2 31V23.68C2 18.64 5.12 16.2 10.84 15.28L21.4 14.12C22.8 13.92 23.76 13.24 23.76 12.16C23.76 11.08 23 10.16 20.44 10.16H14.92C12.44 10.16 11.52 11.32 11.44 12.64H2.6C2.6 9.92002 4 2.52002 14.92 2.52002H20.44C29.28 2.52002 32.72 7.16002 32.72 12.08C32.72 17.04 29.96 19.56 23.76 20.64L12.48 22.04C11.08 22.28 10.6 22.92 10.6 23.68H32.32V31H2Z" fill="white"/>
</svg>
