<svg width="72" height="72" viewBox="0 0 72 72" fill="none" xmlns="http://www.w3.org/2000/svg">
<path d="M38.5373 69.48C27.6173 69.48 26.2173 62.08 26.2173 59.36H34.2573C34.3373 60.68 35.2573 61.84 38.5373 61.84H54.5373C56.9373 61.84 57.9773 60.92 57.9773 59.84C57.9773 58.72 56.9373 58.12 55.1773 58.12H35.3773V51.92H54.3773C56.1373 51.92 57.1773 51.32 57.1773 50.16C57.1773 49.12 56.2973 48.2 54.0973 48.16H37.8973C35.4173 48.16 34.4973 49.36 34.4973 50.64H26.4573C26.4573 45.68 29.2173 40.52 38.0973 40.52H54.0973C63.2973 40.52 66.1373 44.88 66.1373 49.16C66.1373 51.2 65.3373 53.08 63.3773 54.36C65.5373 55.48 66.9373 57.36 66.9373 60.2C66.9373 65.12 63.5373 69.48 54.5373 69.48H38.5373Z" fill="white"/>
<path d="M11.8 41H20.6V69H11.8V48.68L2 50.28V42.6L11.8 41Z" fill="white"/>
<path d="M49.9265 31.48C40.8465 31.48 35.1265 25.2 35.1265 17C35.1265 8.84002 40.8465 2.52002 49.9265 2.52002H55.3265C64.4065 2.52002 70.1265 8.84002 70.1265 17C70.1265 25.2 64.4065 31.48 55.3265 31.48H49.9265ZM49.9265 23H55.3265C58.9265 23 61.1665 20.6 61.1665 17C61.1665 13.44 58.9265 11 55.3265 11H49.9265C46.3265 11 44.0865 13.44 44.0865 17C44.0865 20.6 46.3265 23 49.9265 23Z" fill="white"/>
<path d="M2 31V23.68C2 18.64 5.12 16.2 10.84 15.28L21.4 14.12C22.8 13.92 23.76 13.24 23.76 12.16C23.76 11.08 23 10.16 20.44 10.16H14.92C12.44 10.16 11.52 11.32 11.44 12.64H2.6C2.6 9.92002 4 2.52002 14.92 2.52002H20.44C29.28 2.52002 32.72 7.16002 32.72 12.08C32.72 17.04 29.96 19.56 23.76 20.64L12.48 22.04C11.08 22.28 10.6 22.92 10.6 23.68H32.32V31H2Z" fill="white"/>
</svg>
