<svg width="72" height="72" viewBox="0 0 72 72" fill="none" xmlns="http://www.w3.org/2000/svg">
<path d="M65.889 54.56C68.3289 55.64 70.0489 57.84 70.0489 61.08C70.0489 65.64 67.0089 69.48 57.6089 69.48H41.6089C32.2089 69.48 29.1689 65.64 29.1689 61.08C29.1689 57.84 30.8889 55.64 33.3289 54.56C31.4489 53.64 29.7289 51.56 29.7289 48.72C29.7289 43.92 33.3689 40.52 41.6089 40.52H57.6089C65.8489 40.52 69.4889 43.92 69.4889 48.72C69.4889 51.56 67.769 53.64 65.889 54.56ZM41.6089 47.32C39.5689 47.32 38.3289 48.16 38.3289 49.68C38.3289 51.2 39.5689 52.04 41.6089 52.04H57.6089C59.6489 52.04 60.8889 51.2 60.8889 49.68C60.8889 48.16 59.6489 47.32 57.6089 47.32H41.6089ZM57.6089 62.64C59.8089 62.64 61.0489 61.8 61.0489 60.28C61.0489 58.76 59.8089 57.96 57.6089 57.96H41.6089C39.4089 57.96 38.1689 58.76 38.1689 60.28C38.1689 61.8 39.4089 62.64 41.6089 62.64H57.6089Z" fill="white"/>
<path d="M17.16 41H25.96V69H17.16V48.68L2 50.28V42.6L17.16 41Z" fill="white"/>
<path d="M49.9265 31.48C40.8465 31.48 35.1265 25.2 35.1265 17C35.1265 8.84002 40.8465 2.52002 49.9265 2.52002H55.3265C64.4065 2.52002 70.1265 8.84002 70.1265 17C70.1265 25.2 64.4065 31.48 55.3265 31.48H49.9265ZM49.9265 23H55.3265C58.9265 23 61.1665 20.6 61.1665 17C61.1665 13.44 58.9265 11 55.3265 11H49.9265C46.3265 11 44.0865 13.44 44.0865 17C44.0865 20.6 46.3265 23 49.9265 23Z" fill="white"/>
<path d="M2 31V23.68C2 18.64 5.12 16.2 10.84 15.28L21.4 14.12C22.8 13.92 23.76 13.24 23.76 12.16C23.76 11.08 23 10.16 20.44 10.16H14.92C12.44 10.16 11.52 11.32 11.44 12.64H2.6C2.6 9.92002 4 2.52002 14.92 2.52002H20.44C29.28 2.52002 32.72 7.16002 32.72 12.08C32.72 17.04 29.96 19.56 23.76 20.64L12.48 22.04C11.08 22.28 10.6 22.92 10.6 23.68H32.32V31H2Z" fill="white"/>
</svg>
