<svg width="72" height="72" viewBox="0 0 72 72" fill="none" xmlns="http://www.w3.org/2000/svg">
<path d="M38.0488 69L49.4888 61.56H41.6888C32.4888 61.56 29.5688 56.2 29.5688 51.24C29.5688 46.28 32.4888 40.52 41.6888 40.52H57.6888C66.8888 40.52 69.8088 46.28 69.8088 51.24C69.8088 54.44 68.5288 57.72 65.2488 59.8L50.8088 69H38.0488ZM41.6888 54.32H57.6888C59.8888 54.32 60.8488 52.76 60.8488 51.24C60.8488 49.72 59.8888 48.16 57.6888 48.16H41.6888C39.4888 48.16 38.5288 49.72 38.5288 51.24C38.5288 52.76 39.4888 54.32 41.6888 54.32Z" fill="white"/>
<path d="M17.16 41H25.96V69H17.16V48.68L2 50.28V42.6L17.16 41Z" fill="white"/>
<path d="M49.9265 31.48C40.8465 31.48 35.1265 25.2 35.1265 17C35.1265 8.84002 40.8465 2.52002 49.9265 2.52002H55.3265C64.4065 2.52002 70.1265 8.84002 70.1265 17C70.1265 25.2 64.4065 31.48 55.3265 31.48H49.9265ZM49.9265 23H55.3265C58.9265 23 61.1665 20.6 61.1665 17C61.1665 13.44 58.9265 11 55.3265 11H49.9265C46.3265 11 44.0865 13.44 44.0865 17C44.0865 20.6 46.3265 23 49.9265 23Z" fill="white"/>
<path d="M2 31V23.68C2 18.64 5.12 16.2 10.84 15.28L21.4 14.12C22.8 13.92 23.76 13.24 23.76 12.16C23.76 11.08 23 10.16 20.44 10.16H14.92C12.44 10.16 11.52 11.32 11.44 12.64H2.6C2.6 9.92002 4 2.52002 14.92 2.52002H20.44C29.28 2.52002 32.72 7.16002 32.72 12.08C32.72 17.04 29.96 19.56 23.76 20.64L12.48 22.04C11.08 22.28 10.6 22.92 10.6 23.68H32.32V31H2Z" fill="white"/>
</svg>
