<svg width="72" height="72" viewBox="0 0 72 72" fill="none" xmlns="http://www.w3.org/2000/svg">
<path d="M37.1265 69V61.68C37.1265 56.64 40.2465 54.2 45.9665 53.28L56.5265 52.12C57.9265 51.92 58.8865 51.24 58.8865 50.16C58.8865 49.08 58.1265 48.16 55.5665 48.16H50.0465C47.5665 48.16 46.6465 49.32 46.5665 50.64H37.7265C37.7265 47.92 39.1265 40.52 50.0465 40.52H55.5665C64.4065 40.52 67.8465 45.16 67.8465 50.08C67.8465 55.04 65.0865 57.56 58.8865 58.64L47.6065 60.04C46.2065 60.28 45.7265 60.92 45.7265 61.68H67.4465V69H37.1265Z" fill="white"/>
<path d="M2 69V61.68C2 56.64 5.12 54.2 10.84 53.28L21.4 52.12C22.8 51.92 23.76 51.24 23.76 50.16C23.76 49.08 23 48.16 20.44 48.16H14.92C12.44 48.16 11.52 49.32 11.44 50.64H2.6C2.6 47.92 4 40.52 14.92 40.52H20.44C29.28 40.52 32.72 45.16 32.72 50.08C32.72 55.04 29.96 57.56 23.76 58.64L12.48 60.04C11.08 60.28 10.6 60.92 10.6 61.68H32.32V69H2Z" fill="white"/>
<path d="M49.9265 31.48C40.8465 31.48 35.1265 25.2 35.1265 17C35.1265 8.84002 40.8465 2.52002 49.9265 2.52002H55.3265C64.4065 2.52002 70.1265 8.84002 70.1265 17C70.1265 25.2 64.4065 31.48 55.3265 31.48H49.9265ZM49.9265 23H55.3265C58.9265 23 61.1665 20.6 61.1665 17C61.1665 13.44 58.9265 11 55.3265 11H49.9265C46.3265 11 44.0865 13.44 44.0865 17C44.0865 20.6 46.3265 23 49.9265 23Z" fill="white"/>
<path d="M2 31V23.68C2 18.64 5.12 16.2 10.84 15.28L21.4 14.12C22.8 13.92 23.76 13.24 23.76 12.16C23.76 11.08 23 10.16 20.44 10.16H14.92C12.44 10.16 11.52 11.32 11.44 12.64H2.6C2.6 9.92002 4 2.52002 14.92 2.52002H20.44C29.28 2.52002 32.72 7.16002 32.72 12.08C32.72 17.04 29.96 19.56 23.76 20.64L12.48 22.04C11.08 22.28 10.6 22.92 10.6 23.68H32.32V31H2Z" fill="white"/>
</svg>
