<svg width="72" height="72" viewBox="0 0 72 72" fill="none" xmlns="http://www.w3.org/2000/svg">
<path d="M49.8464 69.48C38.9264 69.48 37.5264 62.08 37.5264 59.36H45.5664C45.6464 60.68 46.5664 61.84 49.8464 61.84H55.2464C57.6464 61.84 58.6864 60.92 58.6864 59.84C58.6864 58.72 57.6464 58.12 55.8864 58.12H46.7664V51.92H55.0864C56.8464 51.92 57.8864 51.32 57.8864 50.16C57.8864 49.12 57.0064 48.2 54.8064 48.16H49.2064C46.7264 48.16 45.8064 49.36 45.8064 50.64H37.7664C37.7664 45.68 40.5264 40.52 49.3664 40.52H54.8064C64.0064 40.52 66.8464 44.88 66.8464 49.16C66.8464 51.2 66.0464 53.08 64.0864 54.36C66.2464 55.48 67.6464 57.36 67.6464 60.2C67.6464 65.12 64.2464 69.48 55.2464 69.48H49.8464Z" fill="white"/>
<path d="M2 69V61.68C2 56.64 5.12 54.2 10.84 53.28L21.4 52.12C22.8 51.92 23.76 51.24 23.76 50.16C23.76 49.08 23 48.16 20.44 48.16H14.92C12.44 48.16 11.52 49.32 11.44 50.64H2.6C2.6 47.92 4 40.52 14.92 40.52H20.44C29.28 40.52 32.72 45.16 32.72 50.08C32.72 55.04 29.96 57.56 23.76 58.64L12.48 60.04C11.08 60.28 10.6 60.92 10.6 61.68H32.32V69H2Z" fill="white"/>
<path d="M49.9265 31.48C40.8465 31.48 35.1265 25.2 35.1265 17C35.1265 8.84002 40.8465 2.52002 49.9265 2.52002H55.3265C64.4065 2.52002 70.1265 8.84002 70.1265 17C70.1265 25.2 64.4065 31.48 55.3265 31.48H49.9265ZM49.9265 23H55.3265C58.9265 23 61.1665 20.6 61.1665 17C61.1665 13.44 58.9265 11 55.3265 11H49.9265C46.3265 11 44.0865 13.44 44.0865 17C44.0865 20.6 46.3265 23 49.9265 23Z" fill="white"/>
<path d="M2 31V23.68C2 18.64 5.12 16.2 10.84 15.28L21.4 14.12C22.8 13.92 23.76 13.24 23.76 12.16C23.76 11.08 23 10.16 20.44 10.16H14.92C12.44 10.16 11.52 11.32 11.44 12.64H2.6C2.6 9.92002 4 2.52002 14.92 2.52002H20.44C29.28 2.52002 32.72 7.16002 32.72 12.08C32.72 17.04 29.96 19.56 23.76 20.64L12.48 22.04C11.08 22.28 10.6 22.92 10.6 23.68H32.32V31H2Z" fill="white"/>
</svg>
